<svg xmlns="http://www.w3.org/2000/svg" version="1.1" xmlns:xlink="http://www.w3.org/1999/xlink" xmlns:svgjs="http://svgjs.dev/svgjs" width="1440" height="560" preserveAspectRatio="none" viewBox="0 0 1440 560"><g mask="url(&quot;#SvgjsMask1110&quot;)" fill="none"><g mask="url(&quot;#SvgjsMask1111&quot;)"><path d="M1060.5 325.5L934.5 199.5L661.5 199.5" stroke-width="3.5" stroke="rgba(46, 147, 87, 1)"></path><path d="M1055.25 325.5 a5.25 5.25 0 1 0 10.5 0 a5.25 5.25 0 1 0 -10.5 0zM656.25 199.5 a5.25 5.25 0 1 0 10.5 0 a5.25 5.25 0 1 0 -10.5 0z" fill="rgba(46, 147, 87, 1)"></path><path d="M1333.5 73.5L1333.5 472.5" stroke-width="3.5" stroke="rgba(46, 147, 87, 1)"></path><path d="M1328.25 73.5 a5.25 5.25 0 1 0 10.5 0 a5.25 5.25 0 1 0 -10.5 0zM1328.25 472.5 a5.25 5.25 0 1 0 10.5 0 a5.25 5.25 0 1 0 -10.5 0z" fill="rgba(46, 147, 87, 1)"></path><path d="M1375.5 199.5L1438.5 199.5" stroke-width="3.5" stroke="rgba(46, 147, 87, 1)"></path><path d="M1370.25 199.5 a5.25 5.25 0 1 0 10.5 0 a5.25 5.25 0 1 0 -10.5 0zM1433.25 199.5 a5.25 5.25 0 1 0 10.5 0 a5.25 5.25 0 1 0 -10.5 0z" fill="rgba(46, 147, 87, 1)"></path><path d="M703.5 430.5L598.5 430.5L472.5 556.5L304.5 556.5" stroke-width="3.5" stroke="rgba(46, 147, 87, 1)"></path><path d="M698.25 430.5 a5.25 5.25 0 1 0 10.5 0 a5.25 5.25 0 1 0 -10.5 0zM299.25 556.5 a5.25 5.25 0 1 0 10.5 0 a5.25 5.25 0 1 0 -10.5 0z" fill="rgba(46, 147, 87, 1)"></path><path d="M241.5 367.5L220.5 367.5L31.5 556.5L10.5 556.5" stroke-width="3.5" stroke="rgba(46, 147, 87, 1)"></path><path d="M236.25 367.5 a5.25 5.25 0 1 0 10.5 0 a5.25 5.25 0 1 0 -10.5 0zM5.25 556.5 a5.25 5.25 0 1 0 10.5 0 a5.25 5.25 0 1 0 -10.5 0z" fill="rgba(46, 147, 87, 1)"></path><path d="M871.5 472.5L871.5 556.5" stroke-width="3.5" stroke="rgba(46, 147, 87, 1)"></path><path d="M866.25 472.5 a5.25 5.25 0 1 0 10.5 0 a5.25 5.25 0 1 0 -10.5 0zM866.25 556.5 a5.25 5.25 0 1 0 10.5 0 a5.25 5.25 0 1 0 -10.5 0z" fill="rgba(46, 147, 87, 1)"></path><path d="M1228.5 115.5L1333.5 10.5L1396.5 10.5L1438.5 52.5L1438.5 178.5" stroke-width="3.5" stroke="rgba(46, 147, 87, 1)"></path><path d="M1223.25 115.5 a5.25 5.25 0 1 0 10.5 0 a5.25 5.25 0 1 0 -10.5 0zM1433.25 178.5 a5.25 5.25 0 1 0 10.5 0 a5.25 5.25 0 1 0 -10.5 0z" fill="rgba(46, 147, 87, 1)"></path><path d="M1018.5 94.5L1018.5 262.5L1123.5 367.5L1123.5 430.5L1186.5 493.5" stroke-width="3.5" stroke="rgba(46, 147, 87, 1)"></path><path d="M1013.25 94.5 a5.25 5.25 0 1 0 10.5 0 a5.25 5.25 0 1 0 -10.5 0zM1181.25 493.5 a5.25 5.25 0 1 0 10.5 0 a5.25 5.25 0 1 0 -10.5 0z" fill="rgba(46, 147, 87, 1)"></path><path d="M997.5 52.5L871.5 178.5L850.5 178.5L682.5 10.5L598.5 10.5" stroke-width="3.5" stroke="rgba(46, 147, 87, 1)"></path><path d="M992.25 52.5 a5.25 5.25 0 1 0 10.5 0 a5.25 5.25 0 1 0 -10.5 0zM593.25 10.5 a5.25 5.25 0 1 0 10.5 0 a5.25 5.25 0 1 0 -10.5 0z" fill="rgba(46, 147, 87, 1)"></path><path d="M703.5 283.5L976.5 556.5L1060.5 556.5L1081.5 535.5L1081.5 514.5" stroke-width="3.5" stroke="rgba(46, 147, 87, 1)"></path><path d="M698.25 283.5 a5.25 5.25 0 1 0 10.5 0 a5.25 5.25 0 1 0 -10.5 0zM1076.25 514.5 a5.25 5.25 0 1 0 10.5 0 a5.25 5.25 0 1 0 -10.5 0z" fill="rgba(46, 147, 87, 1)"></path><path d="M619.5 241.5L619.5 409.5" stroke-width="3.5" stroke="rgba(46, 147, 87, 1)"></path><path d="M614.25 241.5 a5.25 5.25 0 1 0 10.5 0 a5.25 5.25 0 1 0 -10.5 0zM614.25 409.5 a5.25 5.25 0 1 0 10.5 0 a5.25 5.25 0 1 0 -10.5 0z" fill="rgba(46, 147, 87, 1)"></path><path d="M1312.5 73.5L1354.5 31.5L1396.5 31.5L1417.5 52.5L1417.5 178.5" stroke-width="3.5" stroke="rgba(46, 147, 87, 1)"></path><path d="M1307.25 73.5 a5.25 5.25 0 1 0 10.5 0 a5.25 5.25 0 1 0 -10.5 0zM1412.25 178.5 a5.25 5.25 0 1 0 10.5 0 a5.25 5.25 0 1 0 -10.5 0z" fill="rgba(46, 147, 87, 1)"></path><path d="M598.5 178.5L493.5 73.5L493.5 10.5" stroke-width="3.5" stroke="rgba(46, 147, 87, 1)"></path><path d="M593.25 178.5 a5.25 5.25 0 1 0 10.5 0 a5.25 5.25 0 1 0 -10.5 0zM488.25 10.5 a5.25 5.25 0 1 0 10.5 0 a5.25 5.25 0 1 0 -10.5 0z" fill="rgba(46, 147, 87, 1)"></path><path d="M745.5 388.5L745.5 346.5L619.5 220.5L388.5 220.5" stroke-width="3.5" stroke="rgba(46, 147, 87, 1)"></path><path d="M740.25 388.5 a5.25 5.25 0 1 0 10.5 0 a5.25 5.25 0 1 0 -10.5 0zM383.25 220.5 a5.25 5.25 0 1 0 10.5 0 a5.25 5.25 0 1 0 -10.5 0z" fill="rgba(46, 147, 87, 1)"></path><path d="M766.5 472.5L808.5 430.5L808.5 409.5L787.5 388.5L766.5 388.5L724.5 430.5L724.5 556.5" stroke-width="3.5" stroke="rgba(46, 147, 87, 1)"></path><path d="M761.25 472.5 a5.25 5.25 0 1 0 10.5 0 a5.25 5.25 0 1 0 -10.5 0zM719.25 556.5 a5.25 5.25 0 1 0 10.5 0 a5.25 5.25 0 1 0 -10.5 0z" fill="rgba(46, 147, 87, 1)"></path><path d="M472.5 325.5L451.5 325.5L346.5 430.5L178.5 430.5L94.5 514.5L94.5 535.5" stroke-width="3.5" stroke="rgba(46, 147, 87, 1)"></path><path d="M467.25 325.5 a5.25 5.25 0 1 0 10.5 0 a5.25 5.25 0 1 0 -10.5 0zM89.25 535.5 a5.25 5.25 0 1 0 10.5 0 a5.25 5.25 0 1 0 -10.5 0z" fill="rgba(46, 147, 87, 1)"></path><path d="M640.5 346.5L640.5 409.5" stroke-width="3.5" stroke="rgba(46, 147, 87, 1)"></path><path d="M635.25 346.5 a5.25 5.25 0 1 0 10.5 0 a5.25 5.25 0 1 0 -10.5 0zM635.25 409.5 a5.25 5.25 0 1 0 10.5 0 a5.25 5.25 0 1 0 -10.5 0z" fill="rgba(46, 147, 87, 1)"></path><path d="M1375.5 262.5L1375.5 220.5L1354.5 199.5L1354.5 115.5L1396.5 73.5L1396.5 52.5" stroke-width="3.5" stroke="rgba(46, 147, 87, 1)"></path><path d="M1370.25 262.5 a5.25 5.25 0 1 0 10.5 0 a5.25 5.25 0 1 0 -10.5 0zM1391.25 52.5 a5.25 5.25 0 1 0 10.5 0 a5.25 5.25 0 1 0 -10.5 0z" fill="rgba(46, 147, 87, 1)"></path><path d="M1312.5 157.5L1144.5 157.5L1102.5 199.5L1102.5 304.5L1123.5 325.5L1123.5 346.5L1144.5 367.5L1144.5 388.5" stroke-width="3.5" stroke="rgba(46, 147, 87, 1)"></path><path d="M1307.25 157.5 a5.25 5.25 0 1 0 10.5 0 a5.25 5.25 0 1 0 -10.5 0zM1139.25 388.5 a5.25 5.25 0 1 0 10.5 0 a5.25 5.25 0 1 0 -10.5 0z" fill="rgba(46, 147, 87, 1)"></path><path d="M556.5 10.5L514.5 52.5L514.5 73.5L703.5 262.5L850.5 262.5" stroke-width="3.5" stroke="rgba(46, 147, 87, 1)"></path><path d="M551.25 10.5 a5.25 5.25 0 1 0 10.5 0 a5.25 5.25 0 1 0 -10.5 0zM845.25 262.5 a5.25 5.25 0 1 0 10.5 0 a5.25 5.25 0 1 0 -10.5 0z" fill="rgba(46, 147, 87, 1)"></path><path d="M178.5 94.5L178.5 10.5" stroke-width="3.5" stroke="rgba(46, 147, 87, 1)"></path><path d="M173.25 94.5 a5.25 5.25 0 1 0 10.5 0 a5.25 5.25 0 1 0 -10.5 0zM173.25 10.5 a5.25 5.25 0 1 0 10.5 0 a5.25 5.25 0 1 0 -10.5 0z" fill="rgba(46, 147, 87, 1)"></path><path d="M1375.5 346.5L1438.5 283.5L1438.5 220.5" stroke-width="3.5" stroke="rgba(46, 147, 87, 1)"></path><path d="M1370.25 346.5 a5.25 5.25 0 1 0 10.5 0 a5.25 5.25 0 1 0 -10.5 0zM1433.25 220.5 a5.25 5.25 0 1 0 10.5 0 a5.25 5.25 0 1 0 -10.5 0z" fill="rgba(46, 147, 87, 1)"></path><path d="M1018.5 514.5L787.5 283.5L724.5 283.5" stroke-width="3.5" stroke="rgba(46, 147, 87, 1)"></path><path d="M1013.25 514.5 a5.25 5.25 0 1 0 10.5 0 a5.25 5.25 0 1 0 -10.5 0zM719.25 283.5 a5.25 5.25 0 1 0 10.5 0 a5.25 5.25 0 1 0 -10.5 0z" fill="rgba(46, 147, 87, 1)"></path><path d="M1018.5 388.5L1018.5 346.5L934.5 262.5L913.5 262.5L850.5 325.5" stroke-width="3.5" stroke="rgba(46, 147, 87, 1)"></path><path d="M1013.25 388.5 a5.25 5.25 0 1 0 10.5 0 a5.25 5.25 0 1 0 -10.5 0zM845.25 325.5 a5.25 5.25 0 1 0 10.5 0 a5.25 5.25 0 1 0 -10.5 0z" fill="rgba(46, 147, 87, 1)"></path><path d="M1228.5 346.5L1228.5 262.5L1144.5 178.5" stroke-width="3.5" stroke="rgba(46, 147, 87, 1)"></path><path d="M1223.25 346.5 a5.25 5.25 0 1 0 10.5 0 a5.25 5.25 0 1 0 -10.5 0zM1139.25 178.5 a5.25 5.25 0 1 0 10.5 0 a5.25 5.25 0 1 0 -10.5 0z" fill="rgba(46, 147, 87, 1)"></path><path d="M1396.5 451.5L1291.5 556.5L1081.5 556.5" stroke-width="3.5" stroke="rgba(46, 147, 87, 1)"></path><path d="M1391.25 451.5 a5.25 5.25 0 1 0 10.5 0 a5.25 5.25 0 1 0 -10.5 0zM1076.25 556.5 a5.25 5.25 0 1 0 10.5 0 a5.25 5.25 0 1 0 -10.5 0z" fill="rgba(46, 147, 87, 1)"></path><path d="M976.5 388.5L913.5 388.5L871.5 346.5L871.5 325.5L913.5 283.5L934.5 283.5L997.5 346.5L997.5 472.5L1018.5 493.5" stroke-width="3.5" stroke="rgba(46, 147, 87, 1)"></path><path d="M971.25 388.5 a5.25 5.25 0 1 0 10.5 0 a5.25 5.25 0 1 0 -10.5 0zM1013.25 493.5 a5.25 5.25 0 1 0 10.5 0 a5.25 5.25 0 1 0 -10.5 0z" fill="rgba(46, 147, 87, 1)"></path><path d="M556.5 178.5L388.5 10.5L346.5 10.5L157.5 199.5" stroke-width="3.5" stroke="rgba(46, 147, 87, 1)"></path><path d="M551.25 178.5 a5.25 5.25 0 1 0 10.5 0 a5.25 5.25 0 1 0 -10.5 0zM152.25 199.5 a5.25 5.25 0 1 0 10.5 0 a5.25 5.25 0 1 0 -10.5 0z" fill="rgba(46, 147, 87, 1)"></path><path d="M178.5 367.5L136.5 409.5L136.5 430.5L31.5 535.5L10.5 535.5" stroke-width="3.5" stroke="rgba(46, 147, 87, 1)"></path><path d="M173.25 367.5 a5.25 5.25 0 1 0 10.5 0 a5.25 5.25 0 1 0 -10.5 0zM5.25 535.5 a5.25 5.25 0 1 0 10.5 0 a5.25 5.25 0 1 0 -10.5 0z" fill="rgba(46, 147, 87, 1)"></path><path d="M31.5 199.5L31.5 220.5L157.5 346.5L157.5 367.5L94.5 430.5L10.5 430.5" stroke-width="3.5" stroke="rgba(46, 147, 87, 1)"></path><path d="M26.25 199.5 a5.25 5.25 0 1 0 10.5 0 a5.25 5.25 0 1 0 -10.5 0zM5.25 430.5 a5.25 5.25 0 1 0 10.5 0 a5.25 5.25 0 1 0 -10.5 0z" fill="rgba(46, 147, 87, 1)"></path><path d="M682.5 346.5L640.5 304.5L640.5 262.5" stroke-width="3.5" stroke="rgba(46, 147, 87, 1)"></path><path d="M677.25 346.5 a5.25 5.25 0 1 0 10.5 0 a5.25 5.25 0 1 0 -10.5 0zM635.25 262.5 a5.25 5.25 0 1 0 10.5 0 a5.25 5.25 0 1 0 -10.5 0z" fill="rgba(46, 147, 87, 1)"></path><path d="M10.5 136.5L10.5 10.5" stroke-width="3.5" stroke="rgba(46, 147, 87, 1)"></path><path d="M5.25 136.5 a5.25 5.25 0 1 0 10.5 0 a5.25 5.25 0 1 0 -10.5 0zM5.25 10.5 a5.25 5.25 0 1 0 10.5 0 a5.25 5.25 0 1 0 -10.5 0z" fill="rgba(46, 147, 87, 1)"></path><path d="M598.5 514.5L640.5 472.5L640.5 451.5" stroke-width="3.5" stroke="rgba(46, 147, 87, 1)"></path><path d="M593.25 514.5 a5.25 5.25 0 1 0 10.5 0 a5.25 5.25 0 1 0 -10.5 0zM635.25 451.5 a5.25 5.25 0 1 0 10.5 0 a5.25 5.25 0 1 0 -10.5 0z" fill="rgba(46, 147, 87, 1)"></path><path d="M430.5 367.5L514.5 367.5L535.5 388.5L598.5 388.5" stroke-width="3.5" stroke="rgba(46, 147, 87, 1)"></path><path d="M425.25 367.5 a5.25 5.25 0 1 0 10.5 0 a5.25 5.25 0 1 0 -10.5 0zM593.25 388.5 a5.25 5.25 0 1 0 10.5 0 a5.25 5.25 0 1 0 -10.5 0z" fill="rgba(46, 147, 87, 1)"></path><path d="M1417.5 409.5L1417.5 472.5L1438.5 493.5L1438.5 556.5" stroke-width="3.5" stroke="rgba(46, 147, 87, 1)"></path><path d="M1412.25 409.5 a5.25 5.25 0 1 0 10.5 0 a5.25 5.25 0 1 0 -10.5 0zM1433.25 556.5 a5.25 5.25 0 1 0 10.5 0 a5.25 5.25 0 1 0 -10.5 0z" fill="rgba(46, 147, 87, 1)"></path><path d="M409.5 199.5L346.5 199.5L262.5 115.5" stroke-width="3.5" stroke="rgba(46, 147, 87, 1)"></path><path d="M404.25 199.5 a5.25 5.25 0 1 0 10.5 0 a5.25 5.25 0 1 0 -10.5 0zM257.25 115.5 a5.25 5.25 0 1 0 10.5 0 a5.25 5.25 0 1 0 -10.5 0z" fill="rgba(46, 147, 87, 1)"></path><path d="M682.5 325.5L724.5 367.5L724.5 409.5" stroke-width="3.5" stroke="rgba(46, 147, 87, 1)"></path><path d="M677.25 325.5 a5.25 5.25 0 1 0 10.5 0 a5.25 5.25 0 1 0 -10.5 0zM719.25 409.5 a5.25 5.25 0 1 0 10.5 0 a5.25 5.25 0 1 0 -10.5 0z" fill="rgba(46, 147, 87, 1)"></path><path d="M1186.5 178.5L1249.5 241.5L1249.5 493.5L1207.5 535.5L1165.5 535.5" stroke-width="3.5" stroke="rgba(46, 147, 87, 1)"></path><path d="M1181.25 178.5 a5.25 5.25 0 1 0 10.5 0 a5.25 5.25 0 1 0 -10.5 0zM1160.25 535.5 a5.25 5.25 0 1 0 10.5 0 a5.25 5.25 0 1 0 -10.5 0z" fill="rgba(46, 147, 87, 1)"></path><path d="M913.5 31.5L913.5 115.5L871.5 157.5L850.5 157.5L703.5 10.5" stroke-width="3.5" stroke="rgba(46, 147, 87, 1)"></path><path d="M908.25 31.5 a5.25 5.25 0 1 0 10.5 0 a5.25 5.25 0 1 0 -10.5 0zM698.25 10.5 a5.25 5.25 0 1 0 10.5 0 a5.25 5.25 0 1 0 -10.5 0z" fill="rgba(46, 147, 87, 1)"></path><path d="M430.5 73.5L556.5 199.5L619.5 199.5" stroke-width="3.5" stroke="rgba(46, 147, 87, 1)"></path><path d="M425.25 73.5 a5.25 5.25 0 1 0 10.5 0 a5.25 5.25 0 1 0 -10.5 0zM614.25 199.5 a5.25 5.25 0 1 0 10.5 0 a5.25 5.25 0 1 0 -10.5 0z" fill="rgba(46, 147, 87, 1)"></path><path d="M409.5 73.5L325.5 157.5" stroke-width="3.5" stroke="rgba(46, 147, 87, 1)"></path><path d="M404.25 73.5 a5.25 5.25 0 1 0 10.5 0 a5.25 5.25 0 1 0 -10.5 0zM320.25 157.5 a5.25 5.25 0 1 0 10.5 0 a5.25 5.25 0 1 0 -10.5 0z" fill="rgba(46, 147, 87, 1)"></path><path d="M934.5 367.5L913.5 367.5L892.5 346.5L892.5 325.5L913.5 304.5L934.5 304.5L976.5 346.5L976.5 367.5" stroke-width="3.5" stroke="rgba(46, 147, 87, 1)"></path><path d="M929.25 367.5 a5.25 5.25 0 1 0 10.5 0 a5.25 5.25 0 1 0 -10.5 0zM971.25 367.5 a5.25 5.25 0 1 0 10.5 0 a5.25 5.25 0 1 0 -10.5 0z" fill="rgba(46, 147, 87, 1)"></path><path d="M241.5 10.5L241.5 94.5L94.5 241.5L73.5 241.5L52.5 220.5L52.5 94.5" stroke-width="3.5" stroke="rgba(46, 147, 87, 1)"></path><path d="M236.25 10.5 a5.25 5.25 0 1 0 10.5 0 a5.25 5.25 0 1 0 -10.5 0zM47.25 94.5 a5.25 5.25 0 1 0 10.5 0 a5.25 5.25 0 1 0 -10.5 0z" fill="rgba(46, 147, 87, 1)"></path><path d="M808.5 220.5L745.5 220.5L724.5 241.5L703.5 241.5L682.5 220.5" stroke-width="3.5" stroke="rgba(46, 147, 87, 1)"></path><path d="M803.25 220.5 a5.25 5.25 0 1 0 10.5 0 a5.25 5.25 0 1 0 -10.5 0zM677.25 220.5 a5.25 5.25 0 1 0 10.5 0 a5.25 5.25 0 1 0 -10.5 0z" fill="rgba(46, 147, 87, 1)"></path><path d="M514.5 388.5L556.5 430.5L556.5 451.5L472.5 535.5L430.5 535.5L346.5 451.5L220.5 451.5" stroke-width="3.5" stroke="rgba(46, 147, 87, 1)"></path><path d="M509.25 388.5 a5.25 5.25 0 1 0 10.5 0 a5.25 5.25 0 1 0 -10.5 0zM215.25 451.5 a5.25 5.25 0 1 0 10.5 0 a5.25 5.25 0 1 0 -10.5 0z" fill="rgba(46, 147, 87, 1)"></path><path d="M577.5 304.5L577.5 367.5" stroke-width="3.5" stroke="rgba(46, 147, 87, 1)"></path><path d="M572.25 304.5 a5.25 5.25 0 1 0 10.5 0 a5.25 5.25 0 1 0 -10.5 0zM572.25 367.5 a5.25 5.25 0 1 0 10.5 0 a5.25 5.25 0 1 0 -10.5 0z" fill="rgba(46, 147, 87, 1)"></path><path d="M1228.5 451.5L1228.5 367.5L1123.5 262.5L1123.5 199.5" stroke-width="3.5" stroke="rgba(46, 147, 87, 1)"></path><path d="M1223.25 451.5 a5.25 5.25 0 1 0 10.5 0 a5.25 5.25 0 1 0 -10.5 0zM1118.25 199.5 a5.25 5.25 0 1 0 10.5 0 a5.25 5.25 0 1 0 -10.5 0z" fill="rgba(46, 147, 87, 1)"></path><path d="M304.5 283.5L199.5 283.5L157.5 325.5" stroke-width="3.5" stroke="rgba(46, 147, 87, 1)"></path><path d="M299.25 283.5 a5.25 5.25 0 1 0 10.5 0 a5.25 5.25 0 1 0 -10.5 0zM152.25 325.5 a5.25 5.25 0 1 0 10.5 0 a5.25 5.25 0 1 0 -10.5 0z" fill="rgba(46, 147, 87, 1)"></path><path d="M199.5 178.5L304.5 178.5L430.5 304.5L430.5 325.5L346.5 409.5L283.5 409.5" stroke-width="3.5" stroke="rgba(46, 147, 87, 1)"></path><path d="M194.25 178.5 a5.25 5.25 0 1 0 10.5 0 a5.25 5.25 0 1 0 -10.5 0zM278.25 409.5 a5.25 5.25 0 1 0 10.5 0 a5.25 5.25 0 1 0 -10.5 0z" fill="rgba(46, 147, 87, 1)"></path><path d="M241.5 304.5L241.5 346.5L283.5 388.5L346.5 388.5L409.5 325.5L409.5 304.5L304.5 199.5L241.5 199.5" stroke-width="3.5" stroke="rgba(46, 147, 87, 1)"></path><path d="M236.25 304.5 a5.25 5.25 0 1 0 10.5 0 a5.25 5.25 0 1 0 -10.5 0zM236.25 199.5 a5.25 5.25 0 1 0 10.5 0 a5.25 5.25 0 1 0 -10.5 0z" fill="rgba(46, 147, 87, 1)"></path><path d="M1081.5 262.5L1081.5 304.5" stroke-width="3.5" stroke="rgba(46, 147, 87, 1)"></path><path d="M1076.25 262.5 a5.25 5.25 0 1 0 10.5 0 a5.25 5.25 0 1 0 -10.5 0zM1076.25 304.5 a5.25 5.25 0 1 0 10.5 0 a5.25 5.25 0 1 0 -10.5 0z" fill="rgba(46, 147, 87, 1)"></path><path d="M766.5 514.5L766.5 493.5L745.5 472.5L745.5 451.5" stroke-width="3.5" stroke="rgba(46, 147, 87, 1)"></path><path d="M761.25 514.5 a5.25 5.25 0 1 0 10.5 0 a5.25 5.25 0 1 0 -10.5 0zM740.25 451.5 a5.25 5.25 0 1 0 10.5 0 a5.25 5.25 0 1 0 -10.5 0z" fill="rgba(46, 147, 87, 1)"></path><path d="M1396.5 388.5L1438.5 346.5L1438.5 304.5" stroke-width="3.5" stroke="rgba(46, 147, 87, 1)"></path><path d="M1391.25 388.5 a5.25 5.25 0 1 0 10.5 0 a5.25 5.25 0 1 0 -10.5 0zM1433.25 304.5 a5.25 5.25 0 1 0 10.5 0 a5.25 5.25 0 1 0 -10.5 0z" fill="rgba(46, 147, 87, 1)"></path><path d="M388.5 514.5L367.5 535.5L283.5 535.5L199.5 451.5L178.5 451.5L115.5 514.5" stroke-width="3.5" stroke="rgba(46, 147, 87, 1)"></path><path d="M383.25 514.5 a5.25 5.25 0 1 0 10.5 0 a5.25 5.25 0 1 0 -10.5 0zM110.25 514.5 a5.25 5.25 0 1 0 10.5 0 a5.25 5.25 0 1 0 -10.5 0z" fill="rgba(46, 147, 87, 1)"></path><path d="M1081.5 73.5L1081.5 241.5L1060.5 262.5L1060.5 283.5" stroke-width="3.5" stroke="rgba(46, 147, 87, 1)"></path><path d="M1076.25 73.5 a5.25 5.25 0 1 0 10.5 0 a5.25 5.25 0 1 0 -10.5 0zM1055.25 283.5 a5.25 5.25 0 1 0 10.5 0 a5.25 5.25 0 1 0 -10.5 0z" fill="rgba(46, 147, 87, 1)"></path><path d="M94.5 325.5L94.5 409.5" stroke-width="3.5" stroke="rgba(46, 147, 87, 1)"></path><path d="M89.25 325.5 a5.25 5.25 0 1 0 10.5 0 a5.25 5.25 0 1 0 -10.5 0zM89.25 409.5 a5.25 5.25 0 1 0 10.5 0 a5.25 5.25 0 1 0 -10.5 0z" fill="rgba(46, 147, 87, 1)"></path><path d="M766.5 10.5L871.5 115.5L871.5 136.5" stroke-width="3.5" stroke="rgba(46, 147, 87, 1)"></path><path d="M761.25 10.5 a5.25 5.25 0 1 0 10.5 0 a5.25 5.25 0 1 0 -10.5 0zM866.25 136.5 a5.25 5.25 0 1 0 10.5 0 a5.25 5.25 0 1 0 -10.5 0z" fill="rgba(46, 147, 87, 1)"></path><path d="M535.5 556.5L619.5 472.5L619.5 451.5" stroke-width="3.5" stroke="rgba(46, 147, 87, 1)"></path><path d="M530.25 556.5 a5.25 5.25 0 1 0 10.5 0 a5.25 5.25 0 1 0 -10.5 0zM614.25 451.5 a5.25 5.25 0 1 0 10.5 0 a5.25 5.25 0 1 0 -10.5 0z" fill="rgba(46, 147, 87, 1)"></path><path d="M913.5 10.5L871.5 52.5L871.5 94.5L892.5 115.5" stroke-width="3.5" stroke="rgba(46, 147, 87, 1)"></path><path d="M908.25 10.5 a5.25 5.25 0 1 0 10.5 0 a5.25 5.25 0 1 0 -10.5 0zM887.25 115.5 a5.25 5.25 0 1 0 10.5 0 a5.25 5.25 0 1 0 -10.5 0z" fill="rgba(46, 147, 87, 1)"></path><path d="M871.5 31.5L808.5 31.5L787.5 10.5" stroke-width="3.5" stroke="rgba(46, 147, 87, 1)"></path><path d="M866.25 31.5 a5.25 5.25 0 1 0 10.5 0 a5.25 5.25 0 1 0 -10.5 0zM782.25 10.5 a5.25 5.25 0 1 0 10.5 0 a5.25 5.25 0 1 0 -10.5 0z" fill="rgba(46, 147, 87, 1)"></path><path d="M955.5 199.5L997.5 157.5L997.5 73.5L1060.5 10.5L1228.5 10.5L1270.5 52.5" stroke-width="3.5" stroke="rgba(46, 147, 87, 1)"></path><path d="M950.25 199.5 a5.25 5.25 0 1 0 10.5 0 a5.25 5.25 0 1 0 -10.5 0zM1265.25 52.5 a5.25 5.25 0 1 0 10.5 0 a5.25 5.25 0 1 0 -10.5 0z" fill="rgba(46, 147, 87, 1)"></path><path d="M808.5 346.5L808.5 367.5L829.5 388.5L850.5 388.5" stroke-width="3.5" stroke="rgba(46, 147, 87, 1)"></path><path d="M803.25 346.5 a5.25 5.25 0 1 0 10.5 0 a5.25 5.25 0 1 0 -10.5 0zM845.25 388.5 a5.25 5.25 0 1 0 10.5 0 a5.25 5.25 0 1 0 -10.5 0z" fill="rgba(46, 147, 87, 1)"></path><path d="M1354.5 304.5L1396.5 304.5L1417.5 283.5L1417.5 241.5L1396.5 220.5" stroke-width="3.5" stroke="rgba(46, 147, 87, 1)"></path><path d="M1349.25 304.5 a5.25 5.25 0 1 0 10.5 0 a5.25 5.25 0 1 0 -10.5 0zM1391.25 220.5 a5.25 5.25 0 1 0 10.5 0 a5.25 5.25 0 1 0 -10.5 0z" fill="rgba(46, 147, 87, 1)"></path><path d="M262.5 31.5L304.5 31.5L325.5 10.5" stroke-width="3.5" stroke="rgba(46, 147, 87, 1)"></path><path d="M257.25 31.5 a5.25 5.25 0 1 0 10.5 0 a5.25 5.25 0 1 0 -10.5 0zM320.25 10.5 a5.25 5.25 0 1 0 10.5 0 a5.25 5.25 0 1 0 -10.5 0z" fill="rgba(46, 147, 87, 1)"></path><path d="M1144.5 115.5L1102.5 115.5" stroke-width="3.5" stroke="rgba(46, 147, 87, 1)"></path><path d="M1139.25 115.5 a5.25 5.25 0 1 0 10.5 0 a5.25 5.25 0 1 0 -10.5 0zM1097.25 115.5 a5.25 5.25 0 1 0 10.5 0 a5.25 5.25 0 1 0 -10.5 0z" fill="rgba(46, 147, 87, 1)"></path><path d="M577.5 115.5L577.5 52.5L556.5 31.5" stroke-width="3.5" stroke="rgba(46, 147, 87, 1)"></path><path d="M572.25 115.5 a5.25 5.25 0 1 0 10.5 0 a5.25 5.25 0 1 0 -10.5 0zM551.25 31.5 a5.25 5.25 0 1 0 10.5 0 a5.25 5.25 0 1 0 -10.5 0z" fill="rgba(46, 147, 87, 1)"></path><path d="M997.5 10.5L934.5 10.5" stroke-width="3.5" stroke="rgba(46, 147, 87, 1)"></path><path d="M992.25 10.5 a5.25 5.25 0 1 0 10.5 0 a5.25 5.25 0 1 0 -10.5 0zM929.25 10.5 a5.25 5.25 0 1 0 10.5 0 a5.25 5.25 0 1 0 -10.5 0z" fill="rgba(46, 147, 87, 1)"></path><path d="M178.5 472.5L199.5 472.5L283.5 556.5" stroke-width="3.5" stroke="rgba(46, 147, 87, 1)"></path><path d="M173.25 472.5 a5.25 5.25 0 1 0 10.5 0 a5.25 5.25 0 1 0 -10.5 0zM278.25 556.5 a5.25 5.25 0 1 0 10.5 0 a5.25 5.25 0 1 0 -10.5 0z" fill="rgba(46, 147, 87, 1)"></path><path d="M451.5 241.5L388.5 241.5" stroke-width="3.5" stroke="rgba(46, 147, 87, 1)"></path><path d="M446.25 241.5 a5.25 5.25 0 1 0 10.5 0 a5.25 5.25 0 1 0 -10.5 0zM383.25 241.5 a5.25 5.25 0 1 0 10.5 0 a5.25 5.25 0 1 0 -10.5 0z" fill="rgba(46, 147, 87, 1)"></path><path d="M1417.5 535.5L1417.5 493.5L1396.5 472.5" stroke-width="3.5" stroke="rgba(46, 147, 87, 1)"></path><path d="M1412.25 535.5 a5.25 5.25 0 1 0 10.5 0 a5.25 5.25 0 1 0 -10.5 0zM1391.25 472.5 a5.25 5.25 0 1 0 10.5 0 a5.25 5.25 0 1 0 -10.5 0z" fill="rgba(46, 147, 87, 1)"></path><path d="M787.5 52.5L787.5 73.5L850.5 136.5" stroke-width="3.5" stroke="rgba(46, 147, 87, 1)"></path><path d="M782.25 52.5 a5.25 5.25 0 1 0 10.5 0 a5.25 5.25 0 1 0 -10.5 0zM845.25 136.5 a5.25 5.25 0 1 0 10.5 0 a5.25 5.25 0 1 0 -10.5 0z" fill="rgba(46, 147, 87, 1)"></path><path d="M913.5 472.5L976.5 535.5L1060.5 535.5" stroke-width="3.5" stroke="rgba(46, 147, 87, 1)"></path><path d="M908.25 472.5 a5.25 5.25 0 1 0 10.5 0 a5.25 5.25 0 1 0 -10.5 0zM1055.25 535.5 a5.25 5.25 0 1 0 10.5 0 a5.25 5.25 0 1 0 -10.5 0z" fill="rgba(46, 147, 87, 1)"></path><path d="M409.5 430.5L367.5 430.5" stroke-width="3.5" stroke="rgba(46, 147, 87, 1)"></path><path d="M404.25 430.5 a5.25 5.25 0 1 0 10.5 0 a5.25 5.25 0 1 0 -10.5 0zM362.25 430.5 a5.25 5.25 0 1 0 10.5 0 a5.25 5.25 0 1 0 -10.5 0z" fill="rgba(46, 147, 87, 1)"></path><path d="M115.5 241.5L157.5 283.5L157.5 304.5" stroke-width="3.5" stroke="rgba(46, 147, 87, 1)"></path><path d="M110.25 241.5 a5.25 5.25 0 1 0 10.5 0 a5.25 5.25 0 1 0 -10.5 0zM152.25 304.5 a5.25 5.25 0 1 0 10.5 0 a5.25 5.25 0 1 0 -10.5 0z" fill="rgba(46, 147, 87, 1)"></path><path d="M115.5 178.5L73.5 136.5L73.5 10.5" stroke-width="3.5" stroke="rgba(46, 147, 87, 1)"></path><path d="M110.25 178.5 a5.25 5.25 0 1 0 10.5 0 a5.25 5.25 0 1 0 -10.5 0zM68.25 10.5 a5.25 5.25 0 1 0 10.5 0 a5.25 5.25 0 1 0 -10.5 0z" fill="rgba(46, 147, 87, 1)"></path><path d="M1102.5 514.5L1018.5 430.5L1018.5 409.5L1081.5 346.5" stroke-width="3.5" stroke="rgba(46, 147, 87, 1)"></path><path d="M1097.25 514.5 a5.25 5.25 0 1 0 10.5 0 a5.25 5.25 0 1 0 -10.5 0zM1076.25 346.5 a5.25 5.25 0 1 0 10.5 0 a5.25 5.25 0 1 0 -10.5 0z" fill="rgba(46, 147, 87, 1)"></path><path d="M199.5 73.5L220.5 52.5L220.5 10.5" stroke-width="3.5" stroke="rgba(46, 147, 87, 1)"></path><path d="M194.25 73.5 a5.25 5.25 0 1 0 10.5 0 a5.25 5.25 0 1 0 -10.5 0zM215.25 10.5 a5.25 5.25 0 1 0 10.5 0 a5.25 5.25 0 1 0 -10.5 0z" fill="rgba(46, 147, 87, 1)"></path><path d="M388.5 115.5L388.5 178.5" stroke-width="3.5" stroke="rgba(46, 147, 87, 1)"></path><path d="M383.25 115.5 a5.25 5.25 0 1 0 10.5 0 a5.25 5.25 0 1 0 -10.5 0zM383.25 178.5 a5.25 5.25 0 1 0 10.5 0 a5.25 5.25 0 1 0 -10.5 0z" fill="rgba(46, 147, 87, 1)"></path><path d="M388.5 52.5L304.5 136.5" stroke-width="3.5" stroke="rgba(46, 147, 87, 1)"></path><path d="M383.25 52.5 a5.25 5.25 0 1 0 10.5 0 a5.25 5.25 0 1 0 -10.5 0zM299.25 136.5 a5.25 5.25 0 1 0 10.5 0 a5.25 5.25 0 1 0 -10.5 0z" fill="rgba(46, 147, 87, 1)"></path><path d="M1354.5 220.5L1354.5 283.5" stroke-width="3.5" stroke="rgba(46, 147, 87, 1)"></path><path d="M1349.25 220.5 a5.25 5.25 0 1 0 10.5 0 a5.25 5.25 0 1 0 -10.5 0zM1349.25 283.5 a5.25 5.25 0 1 0 10.5 0 a5.25 5.25 0 1 0 -10.5 0z" fill="rgba(46, 147, 87, 1)"></path><path d="M115.5 325.5L136.5 346.5L136.5 367.5L115.5 388.5" stroke-width="3.5" stroke="rgba(46, 147, 87, 1)"></path><path d="M110.25 325.5 a5.25 5.25 0 1 0 10.5 0 a5.25 5.25 0 1 0 -10.5 0zM110.25 388.5 a5.25 5.25 0 1 0 10.5 0 a5.25 5.25 0 1 0 -10.5 0z" fill="rgba(46, 147, 87, 1)"></path><path d="M682.5 514.5L703.5 493.5L703.5 451.5" stroke-width="3.5" stroke="rgba(46, 147, 87, 1)"></path><path d="M677.25 514.5 a5.25 5.25 0 1 0 10.5 0 a5.25 5.25 0 1 0 -10.5 0zM698.25 451.5 a5.25 5.25 0 1 0 10.5 0 a5.25 5.25 0 1 0 -10.5 0z" fill="rgba(46, 147, 87, 1)"></path><path d="M682.5 157.5L682.5 31.5" stroke-width="3.5" stroke="rgba(46, 147, 87, 1)"></path><path d="M677.25 157.5 a5.25 5.25 0 1 0 10.5 0 a5.25 5.25 0 1 0 -10.5 0zM677.25 31.5 a5.25 5.25 0 1 0 10.5 0 a5.25 5.25 0 1 0 -10.5 0z" fill="rgba(46, 147, 87, 1)"></path><path d="M1312.5 115.5L1291.5 136.5L1102.5 136.5" stroke-width="3.5" stroke="rgba(46, 147, 87, 1)"></path><path d="M1307.25 115.5 a5.25 5.25 0 1 0 10.5 0 a5.25 5.25 0 1 0 -10.5 0zM1097.25 136.5 a5.25 5.25 0 1 0 10.5 0 a5.25 5.25 0 1 0 -10.5 0z" fill="rgba(46, 147, 87, 1)"></path><path d="M325.5 472.5L346.5 472.5L367.5 493.5L367.5 514.5" stroke-width="3.5" stroke="rgba(46, 147, 87, 1)"></path><path d="M320.25 472.5 a5.25 5.25 0 1 0 10.5 0 a5.25 5.25 0 1 0 -10.5 0zM362.25 514.5 a5.25 5.25 0 1 0 10.5 0 a5.25 5.25 0 1 0 -10.5 0z" fill="rgba(46, 147, 87, 1)"></path><path d="M850.5 493.5L850.5 535.5L829.5 556.5L808.5 556.5L787.5 535.5L745.5 535.5" stroke-width="3.5" stroke="rgba(46, 147, 87, 1)"></path><path d="M845.25 493.5 a5.25 5.25 0 1 0 10.5 0 a5.25 5.25 0 1 0 -10.5 0zM740.25 535.5 a5.25 5.25 0 1 0 10.5 0 a5.25 5.25 0 1 0 -10.5 0z" fill="rgba(46, 147, 87, 1)"></path><path d="M535.5 262.5L556.5 241.5L598.5 241.5" stroke-width="3.5" stroke="rgba(46, 147, 87, 1)"></path><path d="M530.25 262.5 a5.25 5.25 0 1 0 10.5 0 a5.25 5.25 0 1 0 -10.5 0zM593.25 241.5 a5.25 5.25 0 1 0 10.5 0 a5.25 5.25 0 1 0 -10.5 0z" fill="rgba(46, 147, 87, 1)"></path><path d="M1207.5 493.5L1144.5 430.5L1144.5 409.5L1186.5 367.5L1186.5 346.5L1144.5 304.5" stroke-width="3.5" stroke="rgba(46, 147, 87, 1)"></path><path d="M1202.25 493.5 a5.25 5.25 0 1 0 10.5 0 a5.25 5.25 0 1 0 -10.5 0zM1139.25 304.5 a5.25 5.25 0 1 0 10.5 0 a5.25 5.25 0 1 0 -10.5 0z" fill="rgba(46, 147, 87, 1)"></path><path d="M1354.5 451.5L1354.5 367.5" stroke-width="3.5" stroke="rgba(46, 147, 87, 1)"></path><path d="M1349.25 451.5 a5.25 5.25 0 1 0 10.5 0 a5.25 5.25 0 1 0 -10.5 0zM1349.25 367.5 a5.25 5.25 0 1 0 10.5 0 a5.25 5.25 0 1 0 -10.5 0z" fill="rgba(46, 147, 87, 1)"></path><path d="M955.5 367.5L955.5 346.5L934.5 325.5L913.5 325.5" stroke-width="3.5" stroke="rgba(46, 147, 87, 1)"></path><path d="M950.25 367.5 a5.25 5.25 0 1 0 10.5 0 a5.25 5.25 0 1 0 -10.5 0zM908.25 325.5 a5.25 5.25 0 1 0 10.5 0 a5.25 5.25 0 1 0 -10.5 0z" fill="rgba(46, 147, 87, 1)"></path><path d="M325.5 325.5L262.5 325.5" stroke-width="3.5" stroke="rgba(46, 147, 87, 1)"></path><path d="M320.25 325.5 a5.25 5.25 0 1 0 10.5 0 a5.25 5.25 0 1 0 -10.5 0zM257.25 325.5 a5.25 5.25 0 1 0 10.5 0 a5.25 5.25 0 1 0 -10.5 0z" fill="rgba(46, 147, 87, 1)"></path><path d="M1060.5 115.5L1060.5 241.5L1039.5 262.5" stroke-width="3.5" stroke="rgba(46, 147, 87, 1)"></path><path d="M1055.25 115.5 a5.25 5.25 0 1 0 10.5 0 a5.25 5.25 0 1 0 -10.5 0zM1034.25 262.5 a5.25 5.25 0 1 0 10.5 0 a5.25 5.25 0 1 0 -10.5 0z" fill="rgba(46, 147, 87, 1)"></path><path d="M52.5 367.5L10.5 325.5L10.5 157.5L31.5 136.5L31.5 10.5" stroke-width="3.5" stroke="rgba(46, 147, 87, 1)"></path><path d="M47.25 367.5 a5.25 5.25 0 1 0 10.5 0 a5.25 5.25 0 1 0 -10.5 0zM26.25 10.5 a5.25 5.25 0 1 0 10.5 0 a5.25 5.25 0 1 0 -10.5 0z" fill="rgba(46, 147, 87, 1)"></path><path d="M52.5 409.5L52.5 388.5L73.5 367.5L73.5 283.5L31.5 241.5" stroke-width="3.5" stroke="rgba(46, 147, 87, 1)"></path><path d="M47.25 409.5 a5.25 5.25 0 1 0 10.5 0 a5.25 5.25 0 1 0 -10.5 0zM26.25 241.5 a5.25 5.25 0 1 0 10.5 0 a5.25 5.25 0 1 0 -10.5 0z" fill="rgba(46, 147, 87, 1)"></path><path d="M73.5 178.5L73.5 220.5" stroke-width="3.5" stroke="rgba(46, 147, 87, 1)"></path><path d="M68.25 178.5 a5.25 5.25 0 1 0 10.5 0 a5.25 5.25 0 1 0 -10.5 0zM68.25 220.5 a5.25 5.25 0 1 0 10.5 0 a5.25 5.25 0 1 0 -10.5 0z" fill="rgba(46, 147, 87, 1)"></path><path d="M1291.5 346.5L1291.5 493.5L1312.5 514.5" stroke-width="3.5" stroke="rgba(46, 147, 87, 1)"></path><path d="M1286.25 346.5 a5.25 5.25 0 1 0 10.5 0 a5.25 5.25 0 1 0 -10.5 0zM1307.25 514.5 a5.25 5.25 0 1 0 10.5 0 a5.25 5.25 0 1 0 -10.5 0z" fill="rgba(46, 147, 87, 1)"></path><path d="M1396.5 514.5L1396.5 556.5" stroke-width="3.5" stroke="rgba(46, 147, 87, 1)"></path><path d="M1391.25 514.5 a5.25 5.25 0 1 0 10.5 0 a5.25 5.25 0 1 0 -10.5 0zM1391.25 556.5 a5.25 5.25 0 1 0 10.5 0 a5.25 5.25 0 1 0 -10.5 0z" fill="rgba(46, 147, 87, 1)"></path><path d="M871.5 283.5L850.5 304.5L829.5 304.5L808.5 283.5" stroke-width="3.5" stroke="rgba(46, 147, 87, 1)"></path><path d="M866.25 283.5 a5.25 5.25 0 1 0 10.5 0 a5.25 5.25 0 1 0 -10.5 0zM803.25 283.5 a5.25 5.25 0 1 0 10.5 0 a5.25 5.25 0 1 0 -10.5 0z" fill="rgba(46, 147, 87, 1)"></path><path d="M1039.5 430.5L1144.5 535.5" stroke-width="3.5" stroke="rgba(46, 147, 87, 1)"></path><path d="M1034.25 430.5 a5.25 5.25 0 1 0 10.5 0 a5.25 5.25 0 1 0 -10.5 0zM1139.25 535.5 a5.25 5.25 0 1 0 10.5 0 a5.25 5.25 0 1 0 -10.5 0z" fill="rgba(46, 147, 87, 1)"></path><path d="M1207.5 283.5L1144.5 220.5L1144.5 199.5" stroke-width="3.5" stroke="rgba(46, 147, 87, 1)"></path><path d="M1202.25 283.5 a5.25 5.25 0 1 0 10.5 0 a5.25 5.25 0 1 0 -10.5 0zM1139.25 199.5 a5.25 5.25 0 1 0 10.5 0 a5.25 5.25 0 1 0 -10.5 0z" fill="rgba(46, 147, 87, 1)"></path><path d="M178.5 115.5L94.5 115.5" stroke-width="3.5" stroke="rgba(46, 147, 87, 1)"></path><path d="M173.25 115.5 a5.25 5.25 0 1 0 10.5 0 a5.25 5.25 0 1 0 -10.5 0zM89.25 115.5 a5.25 5.25 0 1 0 10.5 0 a5.25 5.25 0 1 0 -10.5 0z" fill="rgba(46, 147, 87, 1)"></path><path d="M1291.5 199.5L1291.5 262.5L1270.5 283.5L1270.5 535.5" stroke-width="3.5" stroke="rgba(46, 147, 87, 1)"></path><path d="M1286.25 199.5 a5.25 5.25 0 1 0 10.5 0 a5.25 5.25 0 1 0 -10.5 0zM1265.25 535.5 a5.25 5.25 0 1 0 10.5 0 a5.25 5.25 0 1 0 -10.5 0z" fill="rgba(46, 147, 87, 1)"></path><path d="M871.5 262.5L829.5 220.5" stroke-width="3.5" stroke="rgba(46, 147, 87, 1)"></path><path d="M866.25 262.5 a5.25 5.25 0 1 0 10.5 0 a5.25 5.25 0 1 0 -10.5 0zM824.25 220.5 a5.25 5.25 0 1 0 10.5 0 a5.25 5.25 0 1 0 -10.5 0z" fill="rgba(46, 147, 87, 1)"></path><path d="M472.5 514.5L472.5 409.5L451.5 388.5L409.5 388.5L388.5 409.5" stroke-width="3.5" stroke="rgba(46, 147, 87, 1)"></path><path d="M467.25 514.5 a5.25 5.25 0 1 0 10.5 0 a5.25 5.25 0 1 0 -10.5 0zM383.25 409.5 a5.25 5.25 0 1 0 10.5 0 a5.25 5.25 0 1 0 -10.5 0z" fill="rgba(46, 147, 87, 1)"></path><path d="M619.5 535.5L640.5 556.5L661.5 556.5L703.5 514.5" stroke-width="3.5" stroke="rgba(46, 147, 87, 1)"></path><path d="M614.25 535.5 a5.25 5.25 0 1 0 10.5 0 a5.25 5.25 0 1 0 -10.5 0zM698.25 514.5 a5.25 5.25 0 1 0 10.5 0 a5.25 5.25 0 1 0 -10.5 0z" fill="rgba(46, 147, 87, 1)"></path><path d="M409.5 94.5L409.5 178.5L430.5 199.5L451.5 199.5L493.5 157.5" stroke-width="3.5" stroke="rgba(46, 147, 87, 1)"></path><path d="M404.25 94.5 a5.25 5.25 0 1 0 10.5 0 a5.25 5.25 0 1 0 -10.5 0zM488.25 157.5 a5.25 5.25 0 1 0 10.5 0 a5.25 5.25 0 1 0 -10.5 0z" fill="rgba(46, 147, 87, 1)"></path><path d="M1375.5 283.5L1396.5 262.5L1396.5 241.5" stroke-width="3.5" stroke="rgba(46, 147, 87, 1)"></path><path d="M1370.25 283.5 a5.25 5.25 0 1 0 10.5 0 a5.25 5.25 0 1 0 -10.5 0zM1391.25 241.5 a5.25 5.25 0 1 0 10.5 0 a5.25 5.25 0 1 0 -10.5 0z" fill="rgba(46, 147, 87, 1)"></path><path d="M1144.5 31.5L1228.5 31.5L1249.5 52.5L1249.5 73.5L1207.5 115.5L1165.5 115.5L1081.5 31.5L1060.5 31.5L1018.5 73.5" stroke-width="3.5" stroke="rgba(46, 147, 87, 1)"></path><path d="M1139.25 31.5 a5.25 5.25 0 1 0 10.5 0 a5.25 5.25 0 1 0 -10.5 0zM1013.25 73.5 a5.25 5.25 0 1 0 10.5 0 a5.25 5.25 0 1 0 -10.5 0z" fill="rgba(46, 147, 87, 1)"></path><path d="M640.5 52.5L640.5 115.5L661.5 136.5L661.5 178.5" stroke-width="3.5" stroke="rgba(46, 147, 87, 1)"></path><path d="M635.25 52.5 a5.25 5.25 0 1 0 10.5 0 a5.25 5.25 0 1 0 -10.5 0zM656.25 178.5 a5.25 5.25 0 1 0 10.5 0 a5.25 5.25 0 1 0 -10.5 0z" fill="rgba(46, 147, 87, 1)"></path><path d="M535.5 304.5L535.5 367.5" stroke-width="3.5" stroke="rgba(46, 147, 87, 1)"></path><path d="M530.25 304.5 a5.25 5.25 0 1 0 10.5 0 a5.25 5.25 0 1 0 -10.5 0zM530.25 367.5 a5.25 5.25 0 1 0 10.5 0 a5.25 5.25 0 1 0 -10.5 0z" fill="rgba(46, 147, 87, 1)"></path><path d="M724.5 115.5L745.5 136.5L766.5 136.5" stroke-width="3.5" stroke="rgba(46, 147, 87, 1)"></path><path d="M719.25 115.5 a5.25 5.25 0 1 0 10.5 0 a5.25 5.25 0 1 0 -10.5 0zM761.25 136.5 a5.25 5.25 0 1 0 10.5 0 a5.25 5.25 0 1 0 -10.5 0z" fill="rgba(46, 147, 87, 1)"></path><path d="M115.5 10.5L94.5 31.5L94.5 94.5" stroke-width="3.5" stroke="rgba(46, 147, 87, 1)"></path><path d="M110.25 10.5 a5.25 5.25 0 1 0 10.5 0 a5.25 5.25 0 1 0 -10.5 0zM89.25 94.5 a5.25 5.25 0 1 0 10.5 0 a5.25 5.25 0 1 0 -10.5 0z" fill="rgba(46, 147, 87, 1)"></path><path d="M241.5 220.5L220.5 199.5L178.5 199.5L136.5 241.5" stroke-width="3.5" stroke="rgba(46, 147, 87, 1)"></path><path d="M236.25 220.5 a5.25 5.25 0 1 0 10.5 0 a5.25 5.25 0 1 0 -10.5 0zM131.25 241.5 a5.25 5.25 0 1 0 10.5 0 a5.25 5.25 0 1 0 -10.5 0z" fill="rgba(46, 147, 87, 1)"></path><path d="M178.5 325.5L178.5 346.5L199.5 367.5" stroke-width="3.5" stroke="rgba(46, 147, 87, 1)"></path><path d="M173.25 325.5 a5.25 5.25 0 1 0 10.5 0 a5.25 5.25 0 1 0 -10.5 0zM194.25 367.5 a5.25 5.25 0 1 0 10.5 0 a5.25 5.25 0 1 0 -10.5 0z" fill="rgba(46, 147, 87, 1)"></path><path d="M1228.5 493.5L1165.5 430.5L1165.5 409.5L1186.5 388.5L1207.5 388.5" stroke-width="3.5" stroke="rgba(46, 147, 87, 1)"></path><path d="M1223.25 493.5 a5.25 5.25 0 1 0 10.5 0 a5.25 5.25 0 1 0 -10.5 0zM1202.25 388.5 a5.25 5.25 0 1 0 10.5 0 a5.25 5.25 0 1 0 -10.5 0z" fill="rgba(46, 147, 87, 1)"></path><path d="M157.5 535.5L241.5 535.5L262.5 556.5" stroke-width="3.5" stroke="rgba(46, 147, 87, 1)"></path><path d="M152.25 535.5 a5.25 5.25 0 1 0 10.5 0 a5.25 5.25 0 1 0 -10.5 0zM257.25 556.5 a5.25 5.25 0 1 0 10.5 0 a5.25 5.25 0 1 0 -10.5 0z" fill="rgba(46, 147, 87, 1)"></path><path d="M1207.5 451.5L1207.5 409.5" stroke-width="3.5" stroke="rgba(46, 147, 87, 1)"></path><path d="M1202.25 451.5 a5.25 5.25 0 1 0 10.5 0 a5.25 5.25 0 1 0 -10.5 0zM1202.25 409.5 a5.25 5.25 0 1 0 10.5 0 a5.25 5.25 0 1 0 -10.5 0z" fill="rgba(46, 147, 87, 1)"></path><path d="M262.5 136.5L241.5 157.5L220.5 157.5" stroke-width="3.5" stroke="rgba(46, 147, 87, 1)"></path><path d="M257.25 136.5 a5.25 5.25 0 1 0 10.5 0 a5.25 5.25 0 1 0 -10.5 0zM215.25 157.5 a5.25 5.25 0 1 0 10.5 0 a5.25 5.25 0 1 0 -10.5 0z" fill="rgba(46, 147, 87, 1)"></path><path d="M220.5 262.5L346.5 262.5L388.5 304.5L388.5 325.5L346.5 367.5L283.5 367.5L262.5 346.5" stroke-width="3.5" stroke="rgba(46, 147, 87, 1)"></path><path d="M215.25 262.5 a5.25 5.25 0 1 0 10.5 0 a5.25 5.25 0 1 0 -10.5 0zM257.25 346.5 a5.25 5.25 0 1 0 10.5 0 a5.25 5.25 0 1 0 -10.5 0z" fill="rgba(46, 147, 87, 1)"></path><path d="M808.5 241.5L745.5 241.5" stroke-width="3.5" stroke="rgba(46, 147, 87, 1)"></path><path d="M803.25 241.5 a5.25 5.25 0 1 0 10.5 0 a5.25 5.25 0 1 0 -10.5 0zM740.25 241.5 a5.25 5.25 0 1 0 10.5 0 a5.25 5.25 0 1 0 -10.5 0z" fill="rgba(46, 147, 87, 1)"></path><path d="M493.5 304.5L514.5 325.5L514.5 346.5" stroke-width="3.5" stroke="rgba(46, 147, 87, 1)"></path><path d="M488.25 304.5 a5.25 5.25 0 1 0 10.5 0 a5.25 5.25 0 1 0 -10.5 0zM509.25 346.5 a5.25 5.25 0 1 0 10.5 0 a5.25 5.25 0 1 0 -10.5 0z" fill="rgba(46, 147, 87, 1)"></path><path d="M157.5 73.5L115.5 31.5" stroke-width="3.5" stroke="rgba(46, 147, 87, 1)"></path><path d="M152.25 73.5 a5.25 5.25 0 1 0 10.5 0 a5.25 5.25 0 1 0 -10.5 0zM110.25 31.5 a5.25 5.25 0 1 0 10.5 0 a5.25 5.25 0 1 0 -10.5 0z" fill="rgba(46, 147, 87, 1)"></path><path d="M1060.5 52.5L1039.5 73.5L1039.5 241.5" stroke-width="3.5" stroke="rgba(46, 147, 87, 1)"></path><path d="M1055.25 52.5 a5.25 5.25 0 1 0 10.5 0 a5.25 5.25 0 1 0 -10.5 0zM1034.25 241.5 a5.25 5.25 0 1 0 10.5 0 a5.25 5.25 0 1 0 -10.5 0z" fill="rgba(46, 147, 87, 1)"></path><path d="M1039.5 493.5L1039.5 472.5L1018.5 451.5" stroke-width="3.5" stroke="rgba(46, 147, 87, 1)"></path><path d="M1034.25 493.5 a5.25 5.25 0 1 0 10.5 0 a5.25 5.25 0 1 0 -10.5 0zM1013.25 451.5 a5.25 5.25 0 1 0 10.5 0 a5.25 5.25 0 1 0 -10.5 0z" fill="rgba(46, 147, 87, 1)"></path><path d="M955.5 472.5L955.5 493.5L976.5 514.5L997.5 514.5" stroke-width="3.5" stroke="rgba(46, 147, 87, 1)"></path><path d="M950.25 472.5 a5.25 5.25 0 1 0 10.5 0 a5.25 5.25 0 1 0 -10.5 0zM992.25 514.5 a5.25 5.25 0 1 0 10.5 0 a5.25 5.25 0 1 0 -10.5 0z" fill="rgba(46, 147, 87, 1)"></path><path d="M934.5 31.5L1018.5 31.5L1039.5 10.5" stroke-width="3.5" stroke="rgba(46, 147, 87, 1)"></path><path d="M929.25 31.5 a5.25 5.25 0 1 0 10.5 0 a5.25 5.25 0 1 0 -10.5 0zM1034.25 10.5 a5.25 5.25 0 1 0 10.5 0 a5.25 5.25 0 1 0 -10.5 0z" fill="rgba(46, 147, 87, 1)"></path><path d="M1186.5 514.5L1060.5 388.5" stroke-width="3.5" stroke="rgba(46, 147, 87, 1)"></path><path d="M1181.25 514.5 a5.25 5.25 0 1 0 10.5 0 a5.25 5.25 0 1 0 -10.5 0zM1055.25 388.5 a5.25 5.25 0 1 0 10.5 0 a5.25 5.25 0 1 0 -10.5 0z" fill="rgba(46, 147, 87, 1)"></path><path d="M451.5 430.5L430.5 409.5L409.5 409.5" stroke-width="3.5" stroke="rgba(46, 147, 87, 1)"></path><path d="M446.25 430.5 a5.25 5.25 0 1 0 10.5 0 a5.25 5.25 0 1 0 -10.5 0zM404.25 409.5 a5.25 5.25 0 1 0 10.5 0 a5.25 5.25 0 1 0 -10.5 0z" fill="rgba(46, 147, 87, 1)"></path><path d="M598.5 52.5L577.5 31.5L577.5 10.5" stroke-width="3.5" stroke="rgba(46, 147, 87, 1)"></path><path d="M593.25 52.5 a5.25 5.25 0 1 0 10.5 0 a5.25 5.25 0 1 0 -10.5 0zM572.25 10.5 a5.25 5.25 0 1 0 10.5 0 a5.25 5.25 0 1 0 -10.5 0z" fill="rgba(46, 147, 87, 1)"></path><path d="M514.5 283.5L472.5 241.5" stroke-width="3.5" stroke="rgba(46, 147, 87, 1)"></path><path d="M509.25 283.5 a5.25 5.25 0 1 0 10.5 0 a5.25 5.25 0 1 0 -10.5 0zM467.25 241.5 a5.25 5.25 0 1 0 10.5 0 a5.25 5.25 0 1 0 -10.5 0z" fill="rgba(46, 147, 87, 1)"></path><path d="M577.5 262.5L556.5 262.5L535.5 283.5" stroke-width="3.5" stroke="rgba(46, 147, 87, 1)"></path><path d="M572.25 262.5 a5.25 5.25 0 1 0 10.5 0 a5.25 5.25 0 1 0 -10.5 0zM530.25 283.5 a5.25 5.25 0 1 0 10.5 0 a5.25 5.25 0 1 0 -10.5 0z" fill="rgba(46, 147, 87, 1)"></path><path d="M199.5 262.5L199.5 220.5" stroke-width="3.5" stroke="rgba(46, 147, 87, 1)"></path><path d="M194.25 262.5 a5.25 5.25 0 1 0 10.5 0 a5.25 5.25 0 1 0 -10.5 0zM194.25 220.5 a5.25 5.25 0 1 0 10.5 0 a5.25 5.25 0 1 0 -10.5 0z" fill="rgba(46, 147, 87, 1)"></path><path d="M1396.5 178.5L1396.5 94.5" stroke-width="3.5" stroke="rgba(46, 147, 87, 1)"></path><path d="M1391.25 178.5 a5.25 5.25 0 1 0 10.5 0 a5.25 5.25 0 1 0 -10.5 0zM1391.25 94.5 a5.25 5.25 0 1 0 10.5 0 a5.25 5.25 0 1 0 -10.5 0z" fill="rgba(46, 147, 87, 1)"></path><path d="M1375.5 115.5L1375.5 178.5" stroke-width="3.5" stroke="rgba(46, 147, 87, 1)"></path><path d="M1370.25 115.5 a5.25 5.25 0 1 0 10.5 0 a5.25 5.25 0 1 0 -10.5 0zM1370.25 178.5 a5.25 5.25 0 1 0 10.5 0 a5.25 5.25 0 1 0 -10.5 0z" fill="rgba(46, 147, 87, 1)"></path><path d="M1060.5 346.5L1039.5 346.5L934.5 241.5L913.5 241.5" stroke-width="3.5" stroke="rgba(46, 147, 87, 1)"></path><path d="M1055.25 346.5 a5.25 5.25 0 1 0 10.5 0 a5.25 5.25 0 1 0 -10.5 0zM908.25 241.5 a5.25 5.25 0 1 0 10.5 0 a5.25 5.25 0 1 0 -10.5 0z" fill="rgba(46, 147, 87, 1)"></path><path d="M325.5 493.5L262.5 493.5L241.5 472.5" stroke-width="3.5" stroke="rgba(46, 147, 87, 1)"></path><path d="M320.25 493.5 a5.25 5.25 0 1 0 10.5 0 a5.25 5.25 0 1 0 -10.5 0zM236.25 472.5 a5.25 5.25 0 1 0 10.5 0 a5.25 5.25 0 1 0 -10.5 0z" fill="rgba(46, 147, 87, 1)"></path><path d="M1144.5 52.5L1144.5 73.5L1165.5 94.5L1207.5 94.5" stroke-width="3.5" stroke="rgba(46, 147, 87, 1)"></path><path d="M1139.25 52.5 a5.25 5.25 0 1 0 10.5 0 a5.25 5.25 0 1 0 -10.5 0zM1202.25 94.5 a5.25 5.25 0 1 0 10.5 0 a5.25 5.25 0 1 0 -10.5 0z" fill="rgba(46, 147, 87, 1)"></path><path d="M661.5 115.5L661.5 31.5" stroke-width="3.5" stroke="rgba(46, 147, 87, 1)"></path><path d="M656.25 115.5 a5.25 5.25 0 1 0 10.5 0 a5.25 5.25 0 1 0 -10.5 0zM656.25 31.5 a5.25 5.25 0 1 0 10.5 0 a5.25 5.25 0 1 0 -10.5 0z" fill="rgba(46, 147, 87, 1)"></path><path d="M1312.5 220.5L1312.5 262.5" stroke-width="3.5" stroke="rgba(46, 147, 87, 1)"></path><path d="M1307.25 220.5 a5.25 5.25 0 1 0 10.5 0 a5.25 5.25 0 1 0 -10.5 0zM1307.25 262.5 a5.25 5.25 0 1 0 10.5 0 a5.25 5.25 0 1 0 -10.5 0z" fill="rgba(46, 147, 87, 1)"></path><path d="M997.5 178.5L976.5 199.5L976.5 220.5L997.5 241.5" stroke-width="3.5" stroke="rgba(46, 147, 87, 1)"></path><path d="M992.25 178.5 a5.25 5.25 0 1 0 10.5 0 a5.25 5.25 0 1 0 -10.5 0zM992.25 241.5 a5.25 5.25 0 1 0 10.5 0 a5.25 5.25 0 1 0 -10.5 0z" fill="rgba(46, 147, 87, 1)"></path><path d="M1312.5 367.5L1312.5 304.5" stroke-width="3.5" stroke="rgba(46, 147, 87, 1)"></path><path d="M1307.25 367.5 a5.25 5.25 0 1 0 10.5 0 a5.25 5.25 0 1 0 -10.5 0zM1307.25 304.5 a5.25 5.25 0 1 0 10.5 0 a5.25 5.25 0 1 0 -10.5 0z" fill="rgba(46, 147, 87, 1)"></path><path d="M850.5 10.5L808.5 10.5" stroke-width="3.5" stroke="rgba(46, 147, 87, 1)"></path><path d="M845.25 10.5 a5.25 5.25 0 1 0 10.5 0 a5.25 5.25 0 1 0 -10.5 0zM803.25 10.5 a5.25 5.25 0 1 0 10.5 0 a5.25 5.25 0 1 0 -10.5 0z" fill="rgba(46, 147, 87, 1)"></path><path d="M1081.5 430.5L1081.5 451.5L1123.5 493.5" stroke-width="3.5" stroke="rgba(46, 147, 87, 1)"></path><path d="M1076.25 430.5 a5.25 5.25 0 1 0 10.5 0 a5.25 5.25 0 1 0 -10.5 0zM1118.25 493.5 a5.25 5.25 0 1 0 10.5 0 a5.25 5.25 0 1 0 -10.5 0z" fill="rgba(46, 147, 87, 1)"></path><path d="M808.5 472.5L850.5 472.5" stroke-width="3.5" stroke="rgba(46, 147, 87, 1)"></path><path d="M803.25 472.5 a5.25 5.25 0 1 0 10.5 0 a5.25 5.25 0 1 0 -10.5 0zM845.25 472.5 a5.25 5.25 0 1 0 10.5 0 a5.25 5.25 0 1 0 -10.5 0z" fill="rgba(46, 147, 87, 1)"></path><path d="M703.5 115.5L703.5 94.5L724.5 73.5" stroke-width="3.5" stroke="rgba(46, 147, 87, 1)"></path><path d="M698.25 115.5 a5.25 5.25 0 1 0 10.5 0 a5.25 5.25 0 1 0 -10.5 0zM719.25 73.5 a5.25 5.25 0 1 0 10.5 0 a5.25 5.25 0 1 0 -10.5 0z" fill="rgba(46, 147, 87, 1)"></path><path d="M94.5 178.5L94.5 220.5" stroke-width="3.5" stroke="rgba(46, 147, 87, 1)"></path><path d="M89.25 178.5 a5.25 5.25 0 1 0 10.5 0 a5.25 5.25 0 1 0 -10.5 0zM89.25 220.5 a5.25 5.25 0 1 0 10.5 0 a5.25 5.25 0 1 0 -10.5 0z" fill="rgba(46, 147, 87, 1)"></path><path d="M199.5 556.5L241.5 556.5" stroke-width="3.5" stroke="rgba(46, 147, 87, 1)"></path><path d="M194.25 556.5 a5.25 5.25 0 1 0 10.5 0 a5.25 5.25 0 1 0 -10.5 0zM236.25 556.5 a5.25 5.25 0 1 0 10.5 0 a5.25 5.25 0 1 0 -10.5 0z" fill="rgba(46, 147, 87, 1)"></path><path d="M976.5 136.5L955.5 157.5L913.5 157.5L892.5 178.5" stroke-width="3.5" stroke="rgba(46, 147, 87, 1)"></path><path d="M971.25 136.5 a5.25 5.25 0 1 0 10.5 0 a5.25 5.25 0 1 0 -10.5 0zM887.25 178.5 a5.25 5.25 0 1 0 10.5 0 a5.25 5.25 0 1 0 -10.5 0z" fill="rgba(46, 147, 87, 1)"></path><path d="M451.5 31.5L451.5 52.5L472.5 73.5" stroke-width="3.5" stroke="rgba(46, 147, 87, 1)"></path><path d="M446.25 31.5 a5.25 5.25 0 1 0 10.5 0 a5.25 5.25 0 1 0 -10.5 0zM467.25 73.5 a5.25 5.25 0 1 0 10.5 0 a5.25 5.25 0 1 0 -10.5 0z" fill="rgba(46, 147, 87, 1)"></path><path d="M1165.5 73.5L1207.5 73.5" stroke-width="3.5" stroke="rgba(46, 147, 87, 1)"></path><path d="M1160.25 73.5 a5.25 5.25 0 1 0 10.5 0 a5.25 5.25 0 1 0 -10.5 0zM1202.25 73.5 a5.25 5.25 0 1 0 10.5 0 a5.25 5.25 0 1 0 -10.5 0z" fill="rgba(46, 147, 87, 1)"></path><path d="M829.5 535.5L829.5 493.5" stroke-width="3.5" stroke="rgba(46, 147, 87, 1)"></path><path d="M824.25 535.5 a5.25 5.25 0 1 0 10.5 0 a5.25 5.25 0 1 0 -10.5 0zM824.25 493.5 a5.25 5.25 0 1 0 10.5 0 a5.25 5.25 0 1 0 -10.5 0z" fill="rgba(46, 147, 87, 1)"></path><path d="M157.5 262.5L178.5 241.5L178.5 220.5" stroke-width="3.5" stroke="rgba(46, 147, 87, 1)"></path><path d="M152.25 262.5 a5.25 5.25 0 1 0 10.5 0 a5.25 5.25 0 1 0 -10.5 0zM173.25 220.5 a5.25 5.25 0 1 0 10.5 0 a5.25 5.25 0 1 0 -10.5 0z" fill="rgba(46, 147, 87, 1)"></path><path d="M325.5 346.5L346.5 346.5L367.5 325.5L367.5 304.5L346.5 283.5L325.5 283.5L304.5 304.5" stroke-width="3.5" stroke="rgba(46, 147, 87, 1)"></path><path d="M320.25 346.5 a5.25 5.25 0 1 0 10.5 0 a5.25 5.25 0 1 0 -10.5 0zM299.25 304.5 a5.25 5.25 0 1 0 10.5 0 a5.25 5.25 0 1 0 -10.5 0z" fill="rgba(46, 147, 87, 1)"></path><path d="M325.5 94.5L325.5 52.5L346.5 31.5L388.5 31.5" stroke-width="3.5" stroke="rgba(46, 147, 87, 1)"></path><path d="M320.25 94.5 a5.25 5.25 0 1 0 10.5 0 a5.25 5.25 0 1 0 -10.5 0zM383.25 31.5 a5.25 5.25 0 1 0 10.5 0 a5.25 5.25 0 1 0 -10.5 0z" fill="rgba(46, 147, 87, 1)"></path><path d="M619.5 73.5L619.5 31.5" stroke-width="3.5" stroke="rgba(46, 147, 87, 1)"></path><path d="M614.25 73.5 a5.25 5.25 0 1 0 10.5 0 a5.25 5.25 0 1 0 -10.5 0zM614.25 31.5 a5.25 5.25 0 1 0 10.5 0 a5.25 5.25 0 1 0 -10.5 0z" fill="rgba(46, 147, 87, 1)"></path><path d="M1354.5 535.5L1354.5 514.5L1375.5 493.5L1396.5 493.5" stroke-width="3.5" stroke="rgba(46, 147, 87, 1)"></path><path d="M1349.25 535.5 a5.25 5.25 0 1 0 10.5 0 a5.25 5.25 0 1 0 -10.5 0zM1391.25 493.5 a5.25 5.25 0 1 0 10.5 0 a5.25 5.25 0 1 0 -10.5 0z" fill="rgba(46, 147, 87, 1)"></path><path d="M136.5 94.5L136.5 73.5L115.5 52.5" stroke-width="3.5" stroke="rgba(46, 147, 87, 1)"></path><path d="M131.25 94.5 a5.25 5.25 0 1 0 10.5 0 a5.25 5.25 0 1 0 -10.5 0zM110.25 52.5 a5.25 5.25 0 1 0 10.5 0 a5.25 5.25 0 1 0 -10.5 0z" fill="rgba(46, 147, 87, 1)"></path><path d="M262.5 388.5L241.5 388.5L220.5 409.5L199.5 409.5" stroke-width="3.5" stroke="rgba(46, 147, 87, 1)"></path><path d="M257.25 388.5 a5.25 5.25 0 1 0 10.5 0 a5.25 5.25 0 1 0 -10.5 0zM194.25 409.5 a5.25 5.25 0 1 0 10.5 0 a5.25 5.25 0 1 0 -10.5 0z" fill="rgba(46, 147, 87, 1)"></path><path d="M493.5 430.5L493.5 388.5" stroke-width="3.5" stroke="rgba(46, 147, 87, 1)"></path><path d="M488.25 430.5 a5.25 5.25 0 1 0 10.5 0 a5.25 5.25 0 1 0 -10.5 0zM488.25 388.5 a5.25 5.25 0 1 0 10.5 0 a5.25 5.25 0 1 0 -10.5 0z" fill="rgba(46, 147, 87, 1)"></path><path d="M283.5 241.5L220.5 241.5" stroke-width="3.5" stroke="rgba(46, 147, 87, 1)"></path><path d="M278.25 241.5 a5.25 5.25 0 1 0 10.5 0 a5.25 5.25 0 1 0 -10.5 0zM215.25 241.5 a5.25 5.25 0 1 0 10.5 0 a5.25 5.25 0 1 0 -10.5 0z" fill="rgba(46, 147, 87, 1)"></path><path d="M472.5 283.5L451.5 262.5L430.5 262.5" stroke-width="3.5" stroke="rgba(46, 147, 87, 1)"></path><path d="M467.25 283.5 a5.25 5.25 0 1 0 10.5 0 a5.25 5.25 0 1 0 -10.5 0zM425.25 262.5 a5.25 5.25 0 1 0 10.5 0 a5.25 5.25 0 1 0 -10.5 0z" fill="rgba(46, 147, 87, 1)"></path><path d="M157.5 514.5L136.5 535.5L136.5 556.5" stroke-width="3.5" stroke="rgba(46, 147, 87, 1)"></path><path d="M152.25 514.5 a5.25 5.25 0 1 0 10.5 0 a5.25 5.25 0 1 0 -10.5 0zM131.25 556.5 a5.25 5.25 0 1 0 10.5 0 a5.25 5.25 0 1 0 -10.5 0z" fill="rgba(46, 147, 87, 1)"></path><path d="M955.5 409.5L955.5 430.5L976.5 451.5" stroke-width="3.5" stroke="rgba(46, 147, 87, 1)"></path><path d="M950.25 409.5 a5.25 5.25 0 1 0 10.5 0 a5.25 5.25 0 1 0 -10.5 0zM971.25 451.5 a5.25 5.25 0 1 0 10.5 0 a5.25 5.25 0 1 0 -10.5 0z" fill="rgba(46, 147, 87, 1)"></path><path d="M808.5 493.5L808.5 535.5" stroke-width="3.5" stroke="rgba(46, 147, 87, 1)"></path><path d="M803.25 493.5 a5.25 5.25 0 1 0 10.5 0 a5.25 5.25 0 1 0 -10.5 0zM803.25 535.5 a5.25 5.25 0 1 0 10.5 0 a5.25 5.25 0 1 0 -10.5 0z" fill="rgba(46, 147, 87, 1)"></path><path d="M598.5 283.5L598.5 367.5" stroke-width="3.5" stroke="rgba(46, 147, 87, 1)"></path><path d="M593.25 283.5 a5.25 5.25 0 1 0 10.5 0 a5.25 5.25 0 1 0 -10.5 0zM593.25 367.5 a5.25 5.25 0 1 0 10.5 0 a5.25 5.25 0 1 0 -10.5 0z" fill="rgba(46, 147, 87, 1)"></path><path d="M619.5 115.5L598.5 94.5L598.5 73.5" stroke-width="3.5" stroke="rgba(46, 147, 87, 1)"></path><path d="M614.25 115.5 a5.25 5.25 0 1 0 10.5 0 a5.25 5.25 0 1 0 -10.5 0zM593.25 73.5 a5.25 5.25 0 1 0 10.5 0 a5.25 5.25 0 1 0 -10.5 0z" fill="rgba(46, 147, 87, 1)"></path><path d="M52.5 304.5L52.5 346.5" stroke-width="3.5" stroke="rgba(46, 147, 87, 1)"></path><path d="M47.25 304.5 a5.25 5.25 0 1 0 10.5 0 a5.25 5.25 0 1 0 -10.5 0zM47.25 346.5 a5.25 5.25 0 1 0 10.5 0 a5.25 5.25 0 1 0 -10.5 0z" fill="rgba(46, 147, 87, 1)"></path><path d="M808.5 157.5L787.5 178.5L766.5 178.5" stroke-width="3.5" stroke="rgba(46, 147, 87, 1)"></path><path d="M803.25 157.5 a5.25 5.25 0 1 0 10.5 0 a5.25 5.25 0 1 0 -10.5 0zM761.25 178.5 a5.25 5.25 0 1 0 10.5 0 a5.25 5.25 0 1 0 -10.5 0z" fill="rgba(46, 147, 87, 1)"></path><path d="M52.5 451.5L31.5 451.5L10.5 472.5L10.5 514.5" stroke-width="3.5" stroke="rgba(46, 147, 87, 1)"></path><path d="M47.25 451.5 a5.25 5.25 0 1 0 10.5 0 a5.25 5.25 0 1 0 -10.5 0zM5.25 514.5 a5.25 5.25 0 1 0 10.5 0 a5.25 5.25 0 1 0 -10.5 0z" fill="rgba(46, 147, 87, 1)"></path><path d="M556.5 493.5L577.5 493.5L598.5 472.5L598.5 451.5" stroke-width="3.5" stroke="rgba(46, 147, 87, 1)"></path><path d="M551.25 493.5 a5.25 5.25 0 1 0 10.5 0 a5.25 5.25 0 1 0 -10.5 0zM593.25 451.5 a5.25 5.25 0 1 0 10.5 0 a5.25 5.25 0 1 0 -10.5 0z" fill="rgba(46, 147, 87, 1)"></path><path d="M1291.5 31.5L1270.5 31.5L1249.5 10.5" stroke-width="3.5" stroke="rgba(46, 147, 87, 1)"></path><path d="M1286.25 31.5 a5.25 5.25 0 1 0 10.5 0 a5.25 5.25 0 1 0 -10.5 0zM1244.25 10.5 a5.25 5.25 0 1 0 10.5 0 a5.25 5.25 0 1 0 -10.5 0z" fill="rgba(46, 147, 87, 1)"></path><path d="M1312.5 10.5L1270.5 10.5" stroke-width="3.5" stroke="rgba(46, 147, 87, 1)"></path><path d="M1307.25 10.5 a5.25 5.25 0 1 0 10.5 0 a5.25 5.25 0 1 0 -10.5 0zM1265.25 10.5 a5.25 5.25 0 1 0 10.5 0 a5.25 5.25 0 1 0 -10.5 0z" fill="rgba(46, 147, 87, 1)"></path><path d="M472.5 157.5L430.5 157.5" stroke-width="3.5" stroke="rgba(46, 147, 87, 1)"></path><path d="M467.25 157.5 a5.25 5.25 0 1 0 10.5 0 a5.25 5.25 0 1 0 -10.5 0zM425.25 157.5 a5.25 5.25 0 1 0 10.5 0 a5.25 5.25 0 1 0 -10.5 0z" fill="rgba(46, 147, 87, 1)"></path><path d="M346.5 514.5L283.5 514.5" stroke-width="3.5" stroke="rgba(46, 147, 87, 1)"></path><path d="M341.25 514.5 a5.25 5.25 0 1 0 10.5 0 a5.25 5.25 0 1 0 -10.5 0zM278.25 514.5 a5.25 5.25 0 1 0 10.5 0 a5.25 5.25 0 1 0 -10.5 0z" fill="rgba(46, 147, 87, 1)"></path><path d="M514.5 409.5L535.5 430.5L535.5 451.5L514.5 472.5L493.5 472.5" stroke-width="3.5" stroke="rgba(46, 147, 87, 1)"></path><path d="M509.25 409.5 a5.25 5.25 0 1 0 10.5 0 a5.25 5.25 0 1 0 -10.5 0zM488.25 472.5 a5.25 5.25 0 1 0 10.5 0 a5.25 5.25 0 1 0 -10.5 0z" fill="rgba(46, 147, 87, 1)"></path><path d="M871.5 409.5L892.5 409.5L934.5 451.5L934.5 472.5" stroke-width="3.5" stroke="rgba(46, 147, 87, 1)"></path><path d="M866.25 409.5 a5.25 5.25 0 1 0 10.5 0 a5.25 5.25 0 1 0 -10.5 0zM929.25 472.5 a5.25 5.25 0 1 0 10.5 0 a5.25 5.25 0 1 0 -10.5 0z" fill="rgba(46, 147, 87, 1)"></path><path d="M787.5 472.5L787.5 514.5" stroke-width="3.5" stroke="rgba(46, 147, 87, 1)"></path><path d="M782.25 472.5 a5.25 5.25 0 1 0 10.5 0 a5.25 5.25 0 1 0 -10.5 0zM782.25 514.5 a5.25 5.25 0 1 0 10.5 0 a5.25 5.25 0 1 0 -10.5 0z" fill="rgba(46, 147, 87, 1)"></path><path d="M619.5 157.5L598.5 136.5L598.5 115.5" stroke-width="3.5" stroke="rgba(46, 147, 87, 1)"></path><path d="M614.25 157.5 a5.25 5.25 0 1 0 10.5 0 a5.25 5.25 0 1 0 -10.5 0zM593.25 115.5 a5.25 5.25 0 1 0 10.5 0 a5.25 5.25 0 1 0 -10.5 0z" fill="rgba(46, 147, 87, 1)"></path><path d="M451.5 10.5L472.5 31.5L472.5 52.5" stroke-width="3.5" stroke="rgba(46, 147, 87, 1)"></path><path d="M446.25 10.5 a5.25 5.25 0 1 0 10.5 0 a5.25 5.25 0 1 0 -10.5 0zM467.25 52.5 a5.25 5.25 0 1 0 10.5 0 a5.25 5.25 0 1 0 -10.5 0z" fill="rgba(46, 147, 87, 1)"></path><path d="M934.5 556.5L892.5 514.5" stroke-width="3.5" stroke="rgba(46, 147, 87, 1)"></path><path d="M929.25 556.5 a5.25 5.25 0 1 0 10.5 0 a5.25 5.25 0 1 0 -10.5 0zM887.25 514.5 a5.25 5.25 0 1 0 10.5 0 a5.25 5.25 0 1 0 -10.5 0z" fill="rgba(46, 147, 87, 1)"></path><path d="M1375.5 556.5L1375.5 514.5" stroke-width="3.5" stroke="rgba(46, 147, 87, 1)"></path><path d="M1370.25 556.5 a5.25 5.25 0 1 0 10.5 0 a5.25 5.25 0 1 0 -10.5 0zM1370.25 514.5 a5.25 5.25 0 1 0 10.5 0 a5.25 5.25 0 1 0 -10.5 0z" fill="rgba(46, 147, 87, 1)"></path><path d="M136.5 157.5L157.5 136.5L178.5 136.5" stroke-width="3.5" stroke="rgba(46, 147, 87, 1)"></path><path d="M131.25 157.5 a5.25 5.25 0 1 0 10.5 0 a5.25 5.25 0 1 0 -10.5 0zM173.25 136.5 a5.25 5.25 0 1 0 10.5 0 a5.25 5.25 0 1 0 -10.5 0z" fill="rgba(46, 147, 87, 1)"></path><path d="M409.5 493.5L430.5 472.5L451.5 472.5" stroke-width="3.5" stroke="rgba(46, 147, 87, 1)"></path><path d="M404.25 493.5 a5.25 5.25 0 1 0 10.5 0 a5.25 5.25 0 1 0 -10.5 0zM446.25 472.5 a5.25 5.25 0 1 0 10.5 0 a5.25 5.25 0 1 0 -10.5 0z" fill="rgba(46, 147, 87, 1)"></path></g></g><defs><mask id="SvgjsMask1110"><rect width="1440" height="560" fill="#ffffff"></rect></mask><mask id="SvgjsMask1111"><rect width="1440" height="560" fill="white"></rect><path d="M1057.87 325.5 a2.63 2.63 0 1 0 5.26 0 a2.63 2.63 0 1 0 -5.26 0zM658.87 199.5 a2.63 2.63 0 1 0 5.26 0 a2.63 2.63 0 1 0 -5.26 0z" fill="black"></path><path d="M1330.87 73.5 a2.63 2.63 0 1 0 5.26 0 a2.63 2.63 0 1 0 -5.26 0zM1330.87 472.5 a2.63 2.63 0 1 0 5.26 0 a2.63 2.63 0 1 0 -5.26 0z" fill="black"></path><path d="M1372.87 199.5 a2.63 2.63 0 1 0 5.26 0 a2.63 2.63 0 1 0 -5.26 0zM1435.87 199.5 a2.63 2.63 0 1 0 5.26 0 a2.63 2.63 0 1 0 -5.26 0z" fill="black"></path><path d="M700.87 430.5 a2.63 2.63 0 1 0 5.26 0 a2.63 2.63 0 1 0 -5.26 0zM301.87 556.5 a2.63 2.63 0 1 0 5.26 0 a2.63 2.63 0 1 0 -5.26 0z" fill="black"></path><path d="M238.87 367.5 a2.63 2.63 0 1 0 5.26 0 a2.63 2.63 0 1 0 -5.26 0zM7.87 556.5 a2.63 2.63 0 1 0 5.26 0 a2.63 2.63 0 1 0 -5.26 0z" fill="black"></path><path d="M868.87 472.5 a2.63 2.63 0 1 0 5.26 0 a2.63 2.63 0 1 0 -5.26 0zM868.87 556.5 a2.63 2.63 0 1 0 5.26 0 a2.63 2.63 0 1 0 -5.26 0z" fill="black"></path><path d="M1225.87 115.5 a2.63 2.63 0 1 0 5.26 0 a2.63 2.63 0 1 0 -5.26 0zM1435.87 178.5 a2.63 2.63 0 1 0 5.26 0 a2.63 2.63 0 1 0 -5.26 0z" fill="black"></path><path d="M1015.87 94.5 a2.63 2.63 0 1 0 5.26 0 a2.63 2.63 0 1 0 -5.26 0zM1183.87 493.5 a2.63 2.63 0 1 0 5.26 0 a2.63 2.63 0 1 0 -5.26 0z" fill="black"></path><path d="M994.87 52.5 a2.63 2.63 0 1 0 5.26 0 a2.63 2.63 0 1 0 -5.26 0zM595.87 10.5 a2.63 2.63 0 1 0 5.26 0 a2.63 2.63 0 1 0 -5.26 0z" fill="black"></path><path d="M700.87 283.5 a2.63 2.63 0 1 0 5.26 0 a2.63 2.63 0 1 0 -5.26 0zM1078.87 514.5 a2.63 2.63 0 1 0 5.26 0 a2.63 2.63 0 1 0 -5.26 0z" fill="black"></path><path d="M616.87 241.5 a2.63 2.63 0 1 0 5.26 0 a2.63 2.63 0 1 0 -5.26 0zM616.87 409.5 a2.63 2.63 0 1 0 5.26 0 a2.63 2.63 0 1 0 -5.26 0z" fill="black"></path><path d="M1309.87 73.5 a2.63 2.63 0 1 0 5.26 0 a2.63 2.63 0 1 0 -5.26 0zM1414.87 178.5 a2.63 2.63 0 1 0 5.26 0 a2.63 2.63 0 1 0 -5.26 0z" fill="black"></path><path d="M595.87 178.5 a2.63 2.63 0 1 0 5.26 0 a2.63 2.63 0 1 0 -5.26 0zM490.87 10.5 a2.63 2.63 0 1 0 5.26 0 a2.63 2.63 0 1 0 -5.26 0z" fill="black"></path><path d="M742.87 388.5 a2.63 2.63 0 1 0 5.26 0 a2.63 2.63 0 1 0 -5.26 0zM385.87 220.5 a2.63 2.63 0 1 0 5.26 0 a2.63 2.63 0 1 0 -5.26 0z" fill="black"></path><path d="M763.87 472.5 a2.63 2.63 0 1 0 5.26 0 a2.63 2.63 0 1 0 -5.26 0zM721.87 556.5 a2.63 2.63 0 1 0 5.26 0 a2.63 2.63 0 1 0 -5.26 0z" fill="black"></path><path d="M469.87 325.5 a2.63 2.63 0 1 0 5.26 0 a2.63 2.63 0 1 0 -5.26 0zM91.87 535.5 a2.63 2.63 0 1 0 5.26 0 a2.63 2.63 0 1 0 -5.26 0z" fill="black"></path><path d="M637.87 346.5 a2.63 2.63 0 1 0 5.26 0 a2.63 2.63 0 1 0 -5.26 0zM637.87 409.5 a2.63 2.63 0 1 0 5.26 0 a2.63 2.63 0 1 0 -5.26 0z" fill="black"></path><path d="M1372.87 262.5 a2.63 2.63 0 1 0 5.26 0 a2.63 2.63 0 1 0 -5.26 0zM1393.87 52.5 a2.63 2.63 0 1 0 5.26 0 a2.63 2.63 0 1 0 -5.26 0z" fill="black"></path><path d="M1309.87 157.5 a2.63 2.63 0 1 0 5.26 0 a2.63 2.63 0 1 0 -5.26 0zM1141.87 388.5 a2.63 2.63 0 1 0 5.26 0 a2.63 2.63 0 1 0 -5.26 0z" fill="black"></path><path d="M553.87 10.5 a2.63 2.63 0 1 0 5.26 0 a2.63 2.63 0 1 0 -5.26 0zM847.87 262.5 a2.63 2.63 0 1 0 5.26 0 a2.63 2.63 0 1 0 -5.26 0z" fill="black"></path><path d="M175.87 94.5 a2.63 2.63 0 1 0 5.26 0 a2.63 2.63 0 1 0 -5.26 0zM175.87 10.5 a2.63 2.63 0 1 0 5.26 0 a2.63 2.63 0 1 0 -5.26 0z" fill="black"></path><path d="M1372.87 346.5 a2.63 2.63 0 1 0 5.26 0 a2.63 2.63 0 1 0 -5.26 0zM1435.87 220.5 a2.63 2.63 0 1 0 5.26 0 a2.63 2.63 0 1 0 -5.26 0z" fill="black"></path><path d="M1015.87 514.5 a2.63 2.63 0 1 0 5.26 0 a2.63 2.63 0 1 0 -5.26 0zM721.87 283.5 a2.63 2.63 0 1 0 5.26 0 a2.63 2.63 0 1 0 -5.26 0z" fill="black"></path><path d="M1015.87 388.5 a2.63 2.63 0 1 0 5.26 0 a2.63 2.63 0 1 0 -5.26 0zM847.87 325.5 a2.63 2.63 0 1 0 5.26 0 a2.63 2.63 0 1 0 -5.26 0z" fill="black"></path><path d="M1225.87 346.5 a2.63 2.63 0 1 0 5.26 0 a2.63 2.63 0 1 0 -5.26 0zM1141.87 178.5 a2.63 2.63 0 1 0 5.26 0 a2.63 2.63 0 1 0 -5.26 0z" fill="black"></path><path d="M1393.87 451.5 a2.63 2.63 0 1 0 5.26 0 a2.63 2.63 0 1 0 -5.26 0zM1078.87 556.5 a2.63 2.63 0 1 0 5.26 0 a2.63 2.63 0 1 0 -5.26 0z" fill="black"></path><path d="M973.87 388.5 a2.63 2.63 0 1 0 5.26 0 a2.63 2.63 0 1 0 -5.26 0zM1015.87 493.5 a2.63 2.63 0 1 0 5.26 0 a2.63 2.63 0 1 0 -5.26 0z" fill="black"></path><path d="M553.87 178.5 a2.63 2.63 0 1 0 5.26 0 a2.63 2.63 0 1 0 -5.26 0zM154.87 199.5 a2.63 2.63 0 1 0 5.26 0 a2.63 2.63 0 1 0 -5.26 0z" fill="black"></path><path d="M175.87 367.5 a2.63 2.63 0 1 0 5.26 0 a2.63 2.63 0 1 0 -5.26 0zM7.87 535.5 a2.63 2.63 0 1 0 5.26 0 a2.63 2.63 0 1 0 -5.26 0z" fill="black"></path><path d="M28.87 199.5 a2.63 2.63 0 1 0 5.26 0 a2.63 2.63 0 1 0 -5.26 0zM7.87 430.5 a2.63 2.63 0 1 0 5.26 0 a2.63 2.63 0 1 0 -5.26 0z" fill="black"></path><path d="M679.87 346.5 a2.63 2.63 0 1 0 5.26 0 a2.63 2.63 0 1 0 -5.26 0zM637.87 262.5 a2.63 2.63 0 1 0 5.26 0 a2.63 2.63 0 1 0 -5.26 0z" fill="black"></path><path d="M7.87 136.5 a2.63 2.63 0 1 0 5.26 0 a2.63 2.63 0 1 0 -5.26 0zM7.87 10.5 a2.63 2.63 0 1 0 5.26 0 a2.63 2.63 0 1 0 -5.26 0z" fill="black"></path><path d="M595.87 514.5 a2.63 2.63 0 1 0 5.26 0 a2.63 2.63 0 1 0 -5.26 0zM637.87 451.5 a2.63 2.63 0 1 0 5.26 0 a2.63 2.63 0 1 0 -5.26 0z" fill="black"></path><path d="M427.87 367.5 a2.63 2.63 0 1 0 5.26 0 a2.63 2.63 0 1 0 -5.26 0zM595.87 388.5 a2.63 2.63 0 1 0 5.26 0 a2.63 2.63 0 1 0 -5.26 0z" fill="black"></path><path d="M1414.87 409.5 a2.63 2.63 0 1 0 5.26 0 a2.63 2.63 0 1 0 -5.26 0zM1435.87 556.5 a2.63 2.63 0 1 0 5.26 0 a2.63 2.63 0 1 0 -5.26 0z" fill="black"></path><path d="M406.87 199.5 a2.63 2.63 0 1 0 5.26 0 a2.63 2.63 0 1 0 -5.26 0zM259.87 115.5 a2.63 2.63 0 1 0 5.26 0 a2.63 2.63 0 1 0 -5.26 0z" fill="black"></path><path d="M679.87 325.5 a2.63 2.63 0 1 0 5.26 0 a2.63 2.63 0 1 0 -5.26 0zM721.87 409.5 a2.63 2.63 0 1 0 5.26 0 a2.63 2.63 0 1 0 -5.26 0z" fill="black"></path><path d="M1183.87 178.5 a2.63 2.63 0 1 0 5.26 0 a2.63 2.63 0 1 0 -5.26 0zM1162.87 535.5 a2.63 2.63 0 1 0 5.26 0 a2.63 2.63 0 1 0 -5.26 0z" fill="black"></path><path d="M910.87 31.5 a2.63 2.63 0 1 0 5.26 0 a2.63 2.63 0 1 0 -5.26 0zM700.87 10.5 a2.63 2.63 0 1 0 5.26 0 a2.63 2.63 0 1 0 -5.26 0z" fill="black"></path><path d="M427.87 73.5 a2.63 2.63 0 1 0 5.26 0 a2.63 2.63 0 1 0 -5.26 0zM616.87 199.5 a2.63 2.63 0 1 0 5.26 0 a2.63 2.63 0 1 0 -5.26 0z" fill="black"></path><path d="M406.87 73.5 a2.63 2.63 0 1 0 5.26 0 a2.63 2.63 0 1 0 -5.26 0zM322.87 157.5 a2.63 2.63 0 1 0 5.26 0 a2.63 2.63 0 1 0 -5.26 0z" fill="black"></path><path d="M931.87 367.5 a2.63 2.63 0 1 0 5.26 0 a2.63 2.63 0 1 0 -5.26 0zM973.87 367.5 a2.63 2.63 0 1 0 5.26 0 a2.63 2.63 0 1 0 -5.26 0z" fill="black"></path><path d="M238.87 10.5 a2.63 2.63 0 1 0 5.26 0 a2.63 2.63 0 1 0 -5.26 0zM49.87 94.5 a2.63 2.63 0 1 0 5.26 0 a2.63 2.63 0 1 0 -5.26 0z" fill="black"></path><path d="M805.87 220.5 a2.63 2.63 0 1 0 5.26 0 a2.63 2.63 0 1 0 -5.26 0zM679.87 220.5 a2.63 2.63 0 1 0 5.26 0 a2.63 2.63 0 1 0 -5.26 0z" fill="black"></path><path d="M511.87 388.5 a2.63 2.63 0 1 0 5.26 0 a2.63 2.63 0 1 0 -5.26 0zM217.87 451.5 a2.63 2.63 0 1 0 5.26 0 a2.63 2.63 0 1 0 -5.26 0z" fill="black"></path><path d="M574.87 304.5 a2.63 2.63 0 1 0 5.26 0 a2.63 2.63 0 1 0 -5.26 0zM574.87 367.5 a2.63 2.63 0 1 0 5.26 0 a2.63 2.63 0 1 0 -5.26 0z" fill="black"></path><path d="M1225.87 451.5 a2.63 2.63 0 1 0 5.26 0 a2.63 2.63 0 1 0 -5.26 0zM1120.87 199.5 a2.63 2.63 0 1 0 5.26 0 a2.63 2.63 0 1 0 -5.26 0z" fill="black"></path><path d="M301.87 283.5 a2.63 2.63 0 1 0 5.26 0 a2.63 2.63 0 1 0 -5.26 0zM154.87 325.5 a2.63 2.63 0 1 0 5.26 0 a2.63 2.63 0 1 0 -5.26 0z" fill="black"></path><path d="M196.87 178.5 a2.63 2.63 0 1 0 5.26 0 a2.63 2.63 0 1 0 -5.26 0zM280.87 409.5 a2.63 2.63 0 1 0 5.26 0 a2.63 2.63 0 1 0 -5.26 0z" fill="black"></path><path d="M238.87 304.5 a2.63 2.63 0 1 0 5.26 0 a2.63 2.63 0 1 0 -5.26 0zM238.87 199.5 a2.63 2.63 0 1 0 5.26 0 a2.63 2.63 0 1 0 -5.26 0z" fill="black"></path><path d="M1078.87 262.5 a2.63 2.63 0 1 0 5.26 0 a2.63 2.63 0 1 0 -5.26 0zM1078.87 304.5 a2.63 2.63 0 1 0 5.26 0 a2.63 2.63 0 1 0 -5.26 0z" fill="black"></path><path d="M763.87 514.5 a2.63 2.63 0 1 0 5.26 0 a2.63 2.63 0 1 0 -5.26 0zM742.87 451.5 a2.63 2.63 0 1 0 5.26 0 a2.63 2.63 0 1 0 -5.26 0z" fill="black"></path><path d="M1393.87 388.5 a2.63 2.63 0 1 0 5.26 0 a2.63 2.63 0 1 0 -5.26 0zM1435.87 304.5 a2.63 2.63 0 1 0 5.26 0 a2.63 2.63 0 1 0 -5.26 0z" fill="black"></path><path d="M385.87 514.5 a2.63 2.63 0 1 0 5.26 0 a2.63 2.63 0 1 0 -5.26 0zM112.87 514.5 a2.63 2.63 0 1 0 5.26 0 a2.63 2.63 0 1 0 -5.26 0z" fill="black"></path><path d="M1078.87 73.5 a2.63 2.63 0 1 0 5.26 0 a2.63 2.63 0 1 0 -5.26 0zM1057.87 283.5 a2.63 2.63 0 1 0 5.26 0 a2.63 2.63 0 1 0 -5.26 0z" fill="black"></path><path d="M91.87 325.5 a2.63 2.63 0 1 0 5.26 0 a2.63 2.63 0 1 0 -5.26 0zM91.87 409.5 a2.63 2.63 0 1 0 5.26 0 a2.63 2.63 0 1 0 -5.26 0z" fill="black"></path><path d="M763.87 10.5 a2.63 2.63 0 1 0 5.26 0 a2.63 2.63 0 1 0 -5.26 0zM868.87 136.5 a2.63 2.63 0 1 0 5.26 0 a2.63 2.63 0 1 0 -5.26 0z" fill="black"></path><path d="M532.87 556.5 a2.63 2.63 0 1 0 5.26 0 a2.63 2.63 0 1 0 -5.26 0zM616.87 451.5 a2.63 2.63 0 1 0 5.26 0 a2.63 2.63 0 1 0 -5.26 0z" fill="black"></path><path d="M910.87 10.5 a2.63 2.63 0 1 0 5.26 0 a2.63 2.63 0 1 0 -5.26 0zM889.87 115.5 a2.63 2.63 0 1 0 5.26 0 a2.63 2.63 0 1 0 -5.26 0z" fill="black"></path><path d="M868.87 31.5 a2.63 2.63 0 1 0 5.26 0 a2.63 2.63 0 1 0 -5.26 0zM784.87 10.5 a2.63 2.63 0 1 0 5.26 0 a2.63 2.63 0 1 0 -5.26 0z" fill="black"></path><path d="M952.87 199.5 a2.63 2.63 0 1 0 5.26 0 a2.63 2.63 0 1 0 -5.26 0zM1267.87 52.5 a2.63 2.63 0 1 0 5.26 0 a2.63 2.63 0 1 0 -5.26 0z" fill="black"></path><path d="M805.87 346.5 a2.63 2.63 0 1 0 5.26 0 a2.63 2.63 0 1 0 -5.26 0zM847.87 388.5 a2.63 2.63 0 1 0 5.26 0 a2.63 2.63 0 1 0 -5.26 0z" fill="black"></path><path d="M1351.87 304.5 a2.63 2.63 0 1 0 5.26 0 a2.63 2.63 0 1 0 -5.26 0zM1393.87 220.5 a2.63 2.63 0 1 0 5.26 0 a2.63 2.63 0 1 0 -5.26 0z" fill="black"></path><path d="M259.87 31.5 a2.63 2.63 0 1 0 5.26 0 a2.63 2.63 0 1 0 -5.26 0zM322.87 10.5 a2.63 2.63 0 1 0 5.26 0 a2.63 2.63 0 1 0 -5.26 0z" fill="black"></path><path d="M1141.87 115.5 a2.63 2.63 0 1 0 5.26 0 a2.63 2.63 0 1 0 -5.26 0zM1099.87 115.5 a2.63 2.63 0 1 0 5.26 0 a2.63 2.63 0 1 0 -5.26 0z" fill="black"></path><path d="M574.87 115.5 a2.63 2.63 0 1 0 5.26 0 a2.63 2.63 0 1 0 -5.26 0zM553.87 31.5 a2.63 2.63 0 1 0 5.26 0 a2.63 2.63 0 1 0 -5.26 0z" fill="black"></path><path d="M994.87 10.5 a2.63 2.63 0 1 0 5.26 0 a2.63 2.63 0 1 0 -5.26 0zM931.87 10.5 a2.63 2.63 0 1 0 5.26 0 a2.63 2.63 0 1 0 -5.26 0z" fill="black"></path><path d="M175.87 472.5 a2.63 2.63 0 1 0 5.26 0 a2.63 2.63 0 1 0 -5.26 0zM280.87 556.5 a2.63 2.63 0 1 0 5.26 0 a2.63 2.63 0 1 0 -5.26 0z" fill="black"></path><path d="M448.87 241.5 a2.63 2.63 0 1 0 5.26 0 a2.63 2.63 0 1 0 -5.26 0zM385.87 241.5 a2.63 2.63 0 1 0 5.26 0 a2.63 2.63 0 1 0 -5.26 0z" fill="black"></path><path d="M1414.87 535.5 a2.63 2.63 0 1 0 5.26 0 a2.63 2.63 0 1 0 -5.26 0zM1393.87 472.5 a2.63 2.63 0 1 0 5.26 0 a2.63 2.63 0 1 0 -5.26 0z" fill="black"></path><path d="M784.87 52.5 a2.63 2.63 0 1 0 5.26 0 a2.63 2.63 0 1 0 -5.26 0zM847.87 136.5 a2.63 2.63 0 1 0 5.26 0 a2.63 2.63 0 1 0 -5.26 0z" fill="black"></path><path d="M910.87 472.5 a2.63 2.63 0 1 0 5.26 0 a2.63 2.63 0 1 0 -5.26 0zM1057.87 535.5 a2.63 2.63 0 1 0 5.26 0 a2.63 2.63 0 1 0 -5.26 0z" fill="black"></path><path d="M406.87 430.5 a2.63 2.63 0 1 0 5.26 0 a2.63 2.63 0 1 0 -5.26 0zM364.87 430.5 a2.63 2.63 0 1 0 5.26 0 a2.63 2.63 0 1 0 -5.26 0z" fill="black"></path><path d="M112.87 241.5 a2.63 2.63 0 1 0 5.26 0 a2.63 2.63 0 1 0 -5.26 0zM154.87 304.5 a2.63 2.63 0 1 0 5.26 0 a2.63 2.63 0 1 0 -5.26 0z" fill="black"></path><path d="M112.87 178.5 a2.63 2.63 0 1 0 5.26 0 a2.63 2.63 0 1 0 -5.26 0zM70.87 10.5 a2.63 2.63 0 1 0 5.26 0 a2.63 2.63 0 1 0 -5.26 0z" fill="black"></path><path d="M1099.87 514.5 a2.63 2.63 0 1 0 5.26 0 a2.63 2.63 0 1 0 -5.26 0zM1078.87 346.5 a2.63 2.63 0 1 0 5.26 0 a2.63 2.63 0 1 0 -5.26 0z" fill="black"></path><path d="M196.87 73.5 a2.63 2.63 0 1 0 5.26 0 a2.63 2.63 0 1 0 -5.26 0zM217.87 10.5 a2.63 2.63 0 1 0 5.26 0 a2.63 2.63 0 1 0 -5.26 0z" fill="black"></path><path d="M385.87 115.5 a2.63 2.63 0 1 0 5.26 0 a2.63 2.63 0 1 0 -5.26 0zM385.87 178.5 a2.63 2.63 0 1 0 5.26 0 a2.63 2.63 0 1 0 -5.26 0z" fill="black"></path><path d="M385.87 52.5 a2.63 2.63 0 1 0 5.26 0 a2.63 2.63 0 1 0 -5.26 0zM301.87 136.5 a2.63 2.63 0 1 0 5.26 0 a2.63 2.63 0 1 0 -5.26 0z" fill="black"></path><path d="M1351.87 220.5 a2.63 2.63 0 1 0 5.26 0 a2.63 2.63 0 1 0 -5.26 0zM1351.87 283.5 a2.63 2.63 0 1 0 5.26 0 a2.63 2.63 0 1 0 -5.26 0z" fill="black"></path><path d="M112.87 325.5 a2.63 2.63 0 1 0 5.26 0 a2.63 2.63 0 1 0 -5.26 0zM112.87 388.5 a2.63 2.63 0 1 0 5.26 0 a2.63 2.63 0 1 0 -5.26 0z" fill="black"></path><path d="M679.87 514.5 a2.63 2.63 0 1 0 5.26 0 a2.63 2.63 0 1 0 -5.26 0zM700.87 451.5 a2.63 2.63 0 1 0 5.26 0 a2.63 2.63 0 1 0 -5.26 0z" fill="black"></path><path d="M679.87 157.5 a2.63 2.63 0 1 0 5.26 0 a2.63 2.63 0 1 0 -5.26 0zM679.87 31.5 a2.63 2.63 0 1 0 5.26 0 a2.63 2.63 0 1 0 -5.26 0z" fill="black"></path><path d="M1309.87 115.5 a2.63 2.63 0 1 0 5.26 0 a2.63 2.63 0 1 0 -5.26 0zM1099.87 136.5 a2.63 2.63 0 1 0 5.26 0 a2.63 2.63 0 1 0 -5.26 0z" fill="black"></path><path d="M322.87 472.5 a2.63 2.63 0 1 0 5.26 0 a2.63 2.63 0 1 0 -5.26 0zM364.87 514.5 a2.63 2.63 0 1 0 5.26 0 a2.63 2.63 0 1 0 -5.26 0z" fill="black"></path><path d="M847.87 493.5 a2.63 2.63 0 1 0 5.26 0 a2.63 2.63 0 1 0 -5.26 0zM742.87 535.5 a2.63 2.63 0 1 0 5.26 0 a2.63 2.63 0 1 0 -5.26 0z" fill="black"></path><path d="M532.87 262.5 a2.63 2.63 0 1 0 5.26 0 a2.63 2.63 0 1 0 -5.26 0zM595.87 241.5 a2.63 2.63 0 1 0 5.26 0 a2.63 2.63 0 1 0 -5.26 0z" fill="black"></path><path d="M1204.87 493.5 a2.63 2.63 0 1 0 5.26 0 a2.63 2.63 0 1 0 -5.26 0zM1141.87 304.5 a2.63 2.63 0 1 0 5.26 0 a2.63 2.63 0 1 0 -5.26 0z" fill="black"></path><path d="M1351.87 451.5 a2.63 2.63 0 1 0 5.26 0 a2.63 2.63 0 1 0 -5.26 0zM1351.87 367.5 a2.63 2.63 0 1 0 5.26 0 a2.63 2.63 0 1 0 -5.26 0z" fill="black"></path><path d="M952.87 367.5 a2.63 2.63 0 1 0 5.26 0 a2.63 2.63 0 1 0 -5.26 0zM910.87 325.5 a2.63 2.63 0 1 0 5.26 0 a2.63 2.63 0 1 0 -5.26 0z" fill="black"></path><path d="M322.87 325.5 a2.63 2.63 0 1 0 5.26 0 a2.63 2.63 0 1 0 -5.26 0zM259.87 325.5 a2.63 2.63 0 1 0 5.26 0 a2.63 2.63 0 1 0 -5.26 0z" fill="black"></path><path d="M1057.87 115.5 a2.63 2.63 0 1 0 5.26 0 a2.63 2.63 0 1 0 -5.26 0zM1036.87 262.5 a2.63 2.63 0 1 0 5.26 0 a2.63 2.63 0 1 0 -5.26 0z" fill="black"></path><path d="M49.87 367.5 a2.63 2.63 0 1 0 5.26 0 a2.63 2.63 0 1 0 -5.26 0zM28.87 10.5 a2.63 2.63 0 1 0 5.26 0 a2.63 2.63 0 1 0 -5.26 0z" fill="black"></path><path d="M49.87 409.5 a2.63 2.63 0 1 0 5.26 0 a2.63 2.63 0 1 0 -5.26 0zM28.87 241.5 a2.63 2.63 0 1 0 5.26 0 a2.63 2.63 0 1 0 -5.26 0z" fill="black"></path><path d="M70.87 178.5 a2.63 2.63 0 1 0 5.26 0 a2.63 2.63 0 1 0 -5.26 0zM70.87 220.5 a2.63 2.63 0 1 0 5.26 0 a2.63 2.63 0 1 0 -5.26 0z" fill="black"></path><path d="M1288.87 346.5 a2.63 2.63 0 1 0 5.26 0 a2.63 2.63 0 1 0 -5.26 0zM1309.87 514.5 a2.63 2.63 0 1 0 5.26 0 a2.63 2.63 0 1 0 -5.26 0z" fill="black"></path><path d="M1393.87 514.5 a2.63 2.63 0 1 0 5.26 0 a2.63 2.63 0 1 0 -5.26 0zM1393.87 556.5 a2.63 2.63 0 1 0 5.26 0 a2.63 2.63 0 1 0 -5.26 0z" fill="black"></path><path d="M868.87 283.5 a2.63 2.63 0 1 0 5.26 0 a2.63 2.63 0 1 0 -5.26 0zM805.87 283.5 a2.63 2.63 0 1 0 5.26 0 a2.63 2.63 0 1 0 -5.26 0z" fill="black"></path><path d="M1036.87 430.5 a2.63 2.63 0 1 0 5.26 0 a2.63 2.63 0 1 0 -5.26 0zM1141.87 535.5 a2.63 2.63 0 1 0 5.26 0 a2.63 2.63 0 1 0 -5.26 0z" fill="black"></path><path d="M1204.87 283.5 a2.63 2.63 0 1 0 5.26 0 a2.63 2.63 0 1 0 -5.26 0zM1141.87 199.5 a2.63 2.63 0 1 0 5.26 0 a2.63 2.63 0 1 0 -5.26 0z" fill="black"></path><path d="M175.87 115.5 a2.63 2.63 0 1 0 5.26 0 a2.63 2.63 0 1 0 -5.26 0zM91.87 115.5 a2.63 2.63 0 1 0 5.26 0 a2.63 2.63 0 1 0 -5.26 0z" fill="black"></path><path d="M1288.87 199.5 a2.63 2.63 0 1 0 5.26 0 a2.63 2.63 0 1 0 -5.26 0zM1267.87 535.5 a2.63 2.63 0 1 0 5.26 0 a2.63 2.63 0 1 0 -5.26 0z" fill="black"></path><path d="M868.87 262.5 a2.63 2.63 0 1 0 5.26 0 a2.63 2.63 0 1 0 -5.26 0zM826.87 220.5 a2.63 2.63 0 1 0 5.26 0 a2.63 2.63 0 1 0 -5.26 0z" fill="black"></path><path d="M469.87 514.5 a2.63 2.63 0 1 0 5.26 0 a2.63 2.63 0 1 0 -5.26 0zM385.87 409.5 a2.63 2.63 0 1 0 5.26 0 a2.63 2.63 0 1 0 -5.26 0z" fill="black"></path><path d="M616.87 535.5 a2.63 2.63 0 1 0 5.26 0 a2.63 2.63 0 1 0 -5.26 0zM700.87 514.5 a2.63 2.63 0 1 0 5.26 0 a2.63 2.63 0 1 0 -5.26 0z" fill="black"></path><path d="M406.87 94.5 a2.63 2.63 0 1 0 5.26 0 a2.63 2.63 0 1 0 -5.26 0zM490.87 157.5 a2.63 2.63 0 1 0 5.26 0 a2.63 2.63 0 1 0 -5.26 0z" fill="black"></path><path d="M1372.87 283.5 a2.63 2.63 0 1 0 5.26 0 a2.63 2.63 0 1 0 -5.26 0zM1393.87 241.5 a2.63 2.63 0 1 0 5.26 0 a2.63 2.63 0 1 0 -5.26 0z" fill="black"></path><path d="M1141.87 31.5 a2.63 2.63 0 1 0 5.26 0 a2.63 2.63 0 1 0 -5.26 0zM1015.87 73.5 a2.63 2.63 0 1 0 5.26 0 a2.63 2.63 0 1 0 -5.26 0z" fill="black"></path><path d="M637.87 52.5 a2.63 2.63 0 1 0 5.26 0 a2.63 2.63 0 1 0 -5.26 0zM658.87 178.5 a2.63 2.63 0 1 0 5.26 0 a2.63 2.63 0 1 0 -5.26 0z" fill="black"></path><path d="M532.87 304.5 a2.63 2.63 0 1 0 5.26 0 a2.63 2.63 0 1 0 -5.26 0zM532.87 367.5 a2.63 2.63 0 1 0 5.26 0 a2.63 2.63 0 1 0 -5.26 0z" fill="black"></path><path d="M721.87 115.5 a2.63 2.63 0 1 0 5.26 0 a2.63 2.63 0 1 0 -5.26 0zM763.87 136.5 a2.63 2.63 0 1 0 5.26 0 a2.63 2.63 0 1 0 -5.26 0z" fill="black"></path><path d="M112.87 10.5 a2.63 2.63 0 1 0 5.26 0 a2.63 2.63 0 1 0 -5.26 0zM91.87 94.5 a2.63 2.63 0 1 0 5.26 0 a2.63 2.63 0 1 0 -5.26 0z" fill="black"></path><path d="M238.87 220.5 a2.63 2.63 0 1 0 5.26 0 a2.63 2.63 0 1 0 -5.26 0zM133.87 241.5 a2.63 2.63 0 1 0 5.26 0 a2.63 2.63 0 1 0 -5.26 0z" fill="black"></path><path d="M175.87 325.5 a2.63 2.63 0 1 0 5.26 0 a2.63 2.63 0 1 0 -5.26 0zM196.87 367.5 a2.63 2.63 0 1 0 5.26 0 a2.63 2.63 0 1 0 -5.26 0z" fill="black"></path><path d="M1225.87 493.5 a2.63 2.63 0 1 0 5.26 0 a2.63 2.63 0 1 0 -5.26 0zM1204.87 388.5 a2.63 2.63 0 1 0 5.26 0 a2.63 2.63 0 1 0 -5.26 0z" fill="black"></path><path d="M154.87 535.5 a2.63 2.63 0 1 0 5.26 0 a2.63 2.63 0 1 0 -5.26 0zM259.87 556.5 a2.63 2.63 0 1 0 5.26 0 a2.63 2.63 0 1 0 -5.26 0z" fill="black"></path><path d="M1204.87 451.5 a2.63 2.63 0 1 0 5.26 0 a2.63 2.63 0 1 0 -5.26 0zM1204.87 409.5 a2.63 2.63 0 1 0 5.26 0 a2.63 2.63 0 1 0 -5.26 0z" fill="black"></path><path d="M259.87 136.5 a2.63 2.63 0 1 0 5.26 0 a2.63 2.63 0 1 0 -5.26 0zM217.87 157.5 a2.63 2.63 0 1 0 5.26 0 a2.63 2.63 0 1 0 -5.26 0z" fill="black"></path><path d="M217.87 262.5 a2.63 2.63 0 1 0 5.26 0 a2.63 2.63 0 1 0 -5.26 0zM259.87 346.5 a2.63 2.63 0 1 0 5.26 0 a2.63 2.63 0 1 0 -5.26 0z" fill="black"></path><path d="M805.87 241.5 a2.63 2.63 0 1 0 5.26 0 a2.63 2.63 0 1 0 -5.26 0zM742.87 241.5 a2.63 2.63 0 1 0 5.26 0 a2.63 2.63 0 1 0 -5.26 0z" fill="black"></path><path d="M490.87 304.5 a2.63 2.63 0 1 0 5.26 0 a2.63 2.63 0 1 0 -5.26 0zM511.87 346.5 a2.63 2.63 0 1 0 5.26 0 a2.63 2.63 0 1 0 -5.26 0z" fill="black"></path><path d="M154.87 73.5 a2.63 2.63 0 1 0 5.26 0 a2.63 2.63 0 1 0 -5.26 0zM112.87 31.5 a2.63 2.63 0 1 0 5.26 0 a2.63 2.63 0 1 0 -5.26 0z" fill="black"></path><path d="M1057.87 52.5 a2.63 2.63 0 1 0 5.26 0 a2.63 2.63 0 1 0 -5.26 0zM1036.87 241.5 a2.63 2.63 0 1 0 5.26 0 a2.63 2.63 0 1 0 -5.26 0z" fill="black"></path><path d="M1036.87 493.5 a2.63 2.63 0 1 0 5.26 0 a2.63 2.63 0 1 0 -5.26 0zM1015.87 451.5 a2.63 2.63 0 1 0 5.26 0 a2.63 2.63 0 1 0 -5.26 0z" fill="black"></path><path d="M952.87 472.5 a2.63 2.63 0 1 0 5.26 0 a2.63 2.63 0 1 0 -5.26 0zM994.87 514.5 a2.63 2.63 0 1 0 5.26 0 a2.63 2.63 0 1 0 -5.26 0z" fill="black"></path><path d="M931.87 31.5 a2.63 2.63 0 1 0 5.26 0 a2.63 2.63 0 1 0 -5.26 0zM1036.87 10.5 a2.63 2.63 0 1 0 5.26 0 a2.63 2.63 0 1 0 -5.26 0z" fill="black"></path><path d="M1183.87 514.5 a2.63 2.63 0 1 0 5.26 0 a2.63 2.63 0 1 0 -5.26 0zM1057.87 388.5 a2.63 2.63 0 1 0 5.26 0 a2.63 2.63 0 1 0 -5.26 0z" fill="black"></path><path d="M448.87 430.5 a2.63 2.63 0 1 0 5.26 0 a2.63 2.63 0 1 0 -5.26 0zM406.87 409.5 a2.63 2.63 0 1 0 5.26 0 a2.63 2.63 0 1 0 -5.26 0z" fill="black"></path><path d="M595.87 52.5 a2.63 2.63 0 1 0 5.26 0 a2.63 2.63 0 1 0 -5.26 0zM574.87 10.5 a2.63 2.63 0 1 0 5.26 0 a2.63 2.63 0 1 0 -5.26 0z" fill="black"></path><path d="M511.87 283.5 a2.63 2.63 0 1 0 5.26 0 a2.63 2.63 0 1 0 -5.26 0zM469.87 241.5 a2.63 2.63 0 1 0 5.26 0 a2.63 2.63 0 1 0 -5.26 0z" fill="black"></path><path d="M574.87 262.5 a2.63 2.63 0 1 0 5.26 0 a2.63 2.63 0 1 0 -5.26 0zM532.87 283.5 a2.63 2.63 0 1 0 5.26 0 a2.63 2.63 0 1 0 -5.26 0z" fill="black"></path><path d="M196.87 262.5 a2.63 2.63 0 1 0 5.26 0 a2.63 2.63 0 1 0 -5.26 0zM196.87 220.5 a2.63 2.63 0 1 0 5.26 0 a2.63 2.63 0 1 0 -5.26 0z" fill="black"></path><path d="M1393.87 178.5 a2.63 2.63 0 1 0 5.26 0 a2.63 2.63 0 1 0 -5.26 0zM1393.87 94.5 a2.63 2.63 0 1 0 5.26 0 a2.63 2.63 0 1 0 -5.26 0z" fill="black"></path><path d="M1372.87 115.5 a2.63 2.63 0 1 0 5.26 0 a2.63 2.63 0 1 0 -5.26 0zM1372.87 178.5 a2.63 2.63 0 1 0 5.26 0 a2.63 2.63 0 1 0 -5.26 0z" fill="black"></path><path d="M1057.87 346.5 a2.63 2.63 0 1 0 5.26 0 a2.63 2.63 0 1 0 -5.26 0zM910.87 241.5 a2.63 2.63 0 1 0 5.26 0 a2.63 2.63 0 1 0 -5.26 0z" fill="black"></path><path d="M322.87 493.5 a2.63 2.63 0 1 0 5.26 0 a2.63 2.63 0 1 0 -5.26 0zM238.87 472.5 a2.63 2.63 0 1 0 5.26 0 a2.63 2.63 0 1 0 -5.26 0z" fill="black"></path><path d="M1141.87 52.5 a2.63 2.63 0 1 0 5.26 0 a2.63 2.63 0 1 0 -5.26 0zM1204.87 94.5 a2.63 2.63 0 1 0 5.26 0 a2.63 2.63 0 1 0 -5.26 0z" fill="black"></path><path d="M658.87 115.5 a2.63 2.63 0 1 0 5.26 0 a2.63 2.63 0 1 0 -5.26 0zM658.87 31.5 a2.63 2.63 0 1 0 5.26 0 a2.63 2.63 0 1 0 -5.26 0z" fill="black"></path><path d="M1309.87 220.5 a2.63 2.63 0 1 0 5.26 0 a2.63 2.63 0 1 0 -5.26 0zM1309.87 262.5 a2.63 2.63 0 1 0 5.26 0 a2.63 2.63 0 1 0 -5.26 0z" fill="black"></path><path d="M994.87 178.5 a2.63 2.63 0 1 0 5.26 0 a2.63 2.63 0 1 0 -5.26 0zM994.87 241.5 a2.63 2.63 0 1 0 5.26 0 a2.63 2.63 0 1 0 -5.26 0z" fill="black"></path><path d="M1309.87 367.5 a2.63 2.63 0 1 0 5.26 0 a2.63 2.63 0 1 0 -5.26 0zM1309.87 304.5 a2.63 2.63 0 1 0 5.26 0 a2.63 2.63 0 1 0 -5.26 0z" fill="black"></path><path d="M847.87 10.5 a2.63 2.63 0 1 0 5.26 0 a2.63 2.63 0 1 0 -5.26 0zM805.87 10.5 a2.63 2.63 0 1 0 5.26 0 a2.63 2.63 0 1 0 -5.26 0z" fill="black"></path><path d="M1078.87 430.5 a2.63 2.63 0 1 0 5.26 0 a2.63 2.63 0 1 0 -5.26 0zM1120.87 493.5 a2.63 2.63 0 1 0 5.26 0 a2.63 2.63 0 1 0 -5.26 0z" fill="black"></path><path d="M805.87 472.5 a2.63 2.63 0 1 0 5.26 0 a2.63 2.63 0 1 0 -5.26 0zM847.87 472.5 a2.63 2.63 0 1 0 5.26 0 a2.63 2.63 0 1 0 -5.26 0z" fill="black"></path><path d="M700.87 115.5 a2.63 2.63 0 1 0 5.26 0 a2.63 2.63 0 1 0 -5.26 0zM721.87 73.5 a2.63 2.63 0 1 0 5.26 0 a2.63 2.63 0 1 0 -5.26 0z" fill="black"></path><path d="M91.87 178.5 a2.63 2.63 0 1 0 5.26 0 a2.63 2.63 0 1 0 -5.26 0zM91.87 220.5 a2.63 2.63 0 1 0 5.26 0 a2.63 2.63 0 1 0 -5.26 0z" fill="black"></path><path d="M196.87 556.5 a2.63 2.63 0 1 0 5.26 0 a2.63 2.63 0 1 0 -5.26 0zM238.87 556.5 a2.63 2.63 0 1 0 5.26 0 a2.63 2.63 0 1 0 -5.26 0z" fill="black"></path><path d="M973.87 136.5 a2.63 2.63 0 1 0 5.26 0 a2.63 2.63 0 1 0 -5.26 0zM889.87 178.5 a2.63 2.63 0 1 0 5.26 0 a2.63 2.63 0 1 0 -5.26 0z" fill="black"></path><path d="M448.87 31.5 a2.63 2.63 0 1 0 5.26 0 a2.63 2.63 0 1 0 -5.26 0zM469.87 73.5 a2.63 2.63 0 1 0 5.26 0 a2.63 2.63 0 1 0 -5.26 0z" fill="black"></path><path d="M1162.87 73.5 a2.63 2.63 0 1 0 5.26 0 a2.63 2.63 0 1 0 -5.26 0zM1204.87 73.5 a2.63 2.63 0 1 0 5.26 0 a2.63 2.63 0 1 0 -5.26 0z" fill="black"></path><path d="M826.87 535.5 a2.63 2.63 0 1 0 5.26 0 a2.63 2.63 0 1 0 -5.26 0zM826.87 493.5 a2.63 2.63 0 1 0 5.26 0 a2.63 2.63 0 1 0 -5.26 0z" fill="black"></path><path d="M154.87 262.5 a2.63 2.63 0 1 0 5.26 0 a2.63 2.63 0 1 0 -5.26 0zM175.87 220.5 a2.63 2.63 0 1 0 5.26 0 a2.63 2.63 0 1 0 -5.26 0z" fill="black"></path><path d="M322.87 346.5 a2.63 2.63 0 1 0 5.26 0 a2.63 2.63 0 1 0 -5.26 0zM301.87 304.5 a2.63 2.63 0 1 0 5.26 0 a2.63 2.63 0 1 0 -5.26 0z" fill="black"></path><path d="M322.87 94.5 a2.63 2.63 0 1 0 5.26 0 a2.63 2.63 0 1 0 -5.26 0zM385.87 31.5 a2.63 2.63 0 1 0 5.26 0 a2.63 2.63 0 1 0 -5.26 0z" fill="black"></path><path d="M616.87 73.5 a2.63 2.63 0 1 0 5.26 0 a2.63 2.63 0 1 0 -5.26 0zM616.87 31.5 a2.63 2.63 0 1 0 5.26 0 a2.63 2.63 0 1 0 -5.26 0z" fill="black"></path><path d="M1351.87 535.5 a2.63 2.63 0 1 0 5.26 0 a2.63 2.63 0 1 0 -5.26 0zM1393.87 493.5 a2.63 2.63 0 1 0 5.26 0 a2.63 2.63 0 1 0 -5.26 0z" fill="black"></path><path d="M133.87 94.5 a2.63 2.63 0 1 0 5.26 0 a2.63 2.63 0 1 0 -5.26 0zM112.87 52.5 a2.63 2.63 0 1 0 5.26 0 a2.63 2.63 0 1 0 -5.26 0z" fill="black"></path><path d="M259.87 388.5 a2.63 2.63 0 1 0 5.26 0 a2.63 2.63 0 1 0 -5.26 0zM196.87 409.5 a2.63 2.63 0 1 0 5.26 0 a2.63 2.63 0 1 0 -5.26 0z" fill="black"></path><path d="M490.87 430.5 a2.63 2.63 0 1 0 5.26 0 a2.63 2.63 0 1 0 -5.26 0zM490.87 388.5 a2.63 2.63 0 1 0 5.26 0 a2.63 2.63 0 1 0 -5.26 0z" fill="black"></path><path d="M280.87 241.5 a2.63 2.63 0 1 0 5.26 0 a2.63 2.63 0 1 0 -5.26 0zM217.87 241.5 a2.63 2.63 0 1 0 5.26 0 a2.63 2.63 0 1 0 -5.26 0z" fill="black"></path><path d="M469.87 283.5 a2.63 2.63 0 1 0 5.26 0 a2.63 2.63 0 1 0 -5.26 0zM427.87 262.5 a2.63 2.63 0 1 0 5.26 0 a2.63 2.63 0 1 0 -5.26 0z" fill="black"></path><path d="M154.87 514.5 a2.63 2.63 0 1 0 5.26 0 a2.63 2.63 0 1 0 -5.26 0zM133.87 556.5 a2.63 2.63 0 1 0 5.26 0 a2.63 2.63 0 1 0 -5.26 0z" fill="black"></path><path d="M952.87 409.5 a2.63 2.63 0 1 0 5.26 0 a2.63 2.63 0 1 0 -5.26 0zM973.87 451.5 a2.63 2.63 0 1 0 5.26 0 a2.63 2.63 0 1 0 -5.26 0z" fill="black"></path><path d="M805.87 493.5 a2.63 2.63 0 1 0 5.26 0 a2.63 2.63 0 1 0 -5.26 0zM805.87 535.5 a2.63 2.63 0 1 0 5.26 0 a2.63 2.63 0 1 0 -5.26 0z" fill="black"></path><path d="M595.87 283.5 a2.63 2.63 0 1 0 5.26 0 a2.63 2.63 0 1 0 -5.26 0zM595.87 367.5 a2.63 2.63 0 1 0 5.26 0 a2.63 2.63 0 1 0 -5.26 0z" fill="black"></path><path d="M616.87 115.5 a2.63 2.63 0 1 0 5.26 0 a2.63 2.63 0 1 0 -5.26 0zM595.87 73.5 a2.63 2.63 0 1 0 5.26 0 a2.63 2.63 0 1 0 -5.26 0z" fill="black"></path><path d="M49.87 304.5 a2.63 2.63 0 1 0 5.26 0 a2.63 2.63 0 1 0 -5.26 0zM49.87 346.5 a2.63 2.63 0 1 0 5.26 0 a2.63 2.63 0 1 0 -5.26 0z" fill="black"></path><path d="M805.87 157.5 a2.63 2.63 0 1 0 5.26 0 a2.63 2.63 0 1 0 -5.26 0zM763.87 178.5 a2.63 2.63 0 1 0 5.26 0 a2.63 2.63 0 1 0 -5.26 0z" fill="black"></path><path d="M49.87 451.5 a2.63 2.63 0 1 0 5.26 0 a2.63 2.63 0 1 0 -5.26 0zM7.87 514.5 a2.63 2.63 0 1 0 5.26 0 a2.63 2.63 0 1 0 -5.26 0z" fill="black"></path><path d="M553.87 493.5 a2.63 2.63 0 1 0 5.26 0 a2.63 2.63 0 1 0 -5.26 0zM595.87 451.5 a2.63 2.63 0 1 0 5.26 0 a2.63 2.63 0 1 0 -5.26 0z" fill="black"></path><path d="M1288.87 31.5 a2.63 2.63 0 1 0 5.26 0 a2.63 2.63 0 1 0 -5.26 0zM1246.87 10.5 a2.63 2.63 0 1 0 5.26 0 a2.63 2.63 0 1 0 -5.26 0z" fill="black"></path><path d="M1309.87 10.5 a2.63 2.63 0 1 0 5.26 0 a2.63 2.63 0 1 0 -5.26 0zM1267.87 10.5 a2.63 2.63 0 1 0 5.26 0 a2.63 2.63 0 1 0 -5.26 0z" fill="black"></path><path d="M469.87 157.5 a2.63 2.63 0 1 0 5.26 0 a2.63 2.63 0 1 0 -5.26 0zM427.87 157.5 a2.63 2.63 0 1 0 5.26 0 a2.63 2.63 0 1 0 -5.26 0z" fill="black"></path><path d="M343.87 514.5 a2.63 2.63 0 1 0 5.26 0 a2.63 2.63 0 1 0 -5.26 0zM280.87 514.5 a2.63 2.63 0 1 0 5.26 0 a2.63 2.63 0 1 0 -5.26 0z" fill="black"></path><path d="M511.87 409.5 a2.63 2.63 0 1 0 5.26 0 a2.63 2.63 0 1 0 -5.26 0zM490.87 472.5 a2.63 2.63 0 1 0 5.26 0 a2.63 2.63 0 1 0 -5.26 0z" fill="black"></path><path d="M868.87 409.5 a2.63 2.63 0 1 0 5.26 0 a2.63 2.63 0 1 0 -5.26 0zM931.87 472.5 a2.63 2.63 0 1 0 5.26 0 a2.63 2.63 0 1 0 -5.26 0z" fill="black"></path><path d="M784.87 472.5 a2.63 2.63 0 1 0 5.26 0 a2.63 2.63 0 1 0 -5.26 0zM784.87 514.5 a2.63 2.63 0 1 0 5.26 0 a2.63 2.63 0 1 0 -5.26 0z" fill="black"></path><path d="M616.87 157.5 a2.63 2.63 0 1 0 5.26 0 a2.63 2.63 0 1 0 -5.26 0zM595.87 115.5 a2.63 2.63 0 1 0 5.26 0 a2.63 2.63 0 1 0 -5.26 0z" fill="black"></path><path d="M448.87 10.5 a2.63 2.63 0 1 0 5.26 0 a2.63 2.63 0 1 0 -5.26 0zM469.87 52.5 a2.63 2.63 0 1 0 5.26 0 a2.63 2.63 0 1 0 -5.26 0z" fill="black"></path><path d="M931.87 556.5 a2.63 2.63 0 1 0 5.26 0 a2.63 2.63 0 1 0 -5.26 0zM889.87 514.5 a2.63 2.63 0 1 0 5.26 0 a2.63 2.63 0 1 0 -5.26 0z" fill="black"></path><path d="M1372.87 556.5 a2.63 2.63 0 1 0 5.26 0 a2.63 2.63 0 1 0 -5.26 0zM1372.87 514.5 a2.63 2.63 0 1 0 5.26 0 a2.63 2.63 0 1 0 -5.26 0z" fill="black"></path><path d="M133.87 157.5 a2.63 2.63 0 1 0 5.26 0 a2.63 2.63 0 1 0 -5.26 0zM175.87 136.5 a2.63 2.63 0 1 0 5.26 0 a2.63 2.63 0 1 0 -5.26 0z" fill="black"></path><path d="M406.87 493.5 a2.63 2.63 0 1 0 5.26 0 a2.63 2.63 0 1 0 -5.26 0zM448.87 472.5 a2.63 2.63 0 1 0 5.26 0 a2.63 2.63 0 1 0 -5.26 0z" fill="black"></path></mask></defs></svg>