<svg xmlns="http://www.w3.org/2000/svg" viewBox="0 0 1920 13421.786561264822" class="rocket-background"><defs><linearGradient id="planet1" gradientTransform="rotate(90)"><stop offset="20.31%" stop-color="#7986F7"></stop><stop offset="100%" stop-color="#E85CFF"></stop></linearGradient><linearGradient id="planet2" gradientTransform="rotate(90)"><stop offset="2.08%" stop-color="#3D210D"></stop><stop offset="54.69%" stop-color="#A981FF"></stop><stop offset="100%" stop-color="#28FFD8"></stop></linearGradient><linearGradient id="planet3" gradientTransform="rotate(90)"><stop offset="3.65%" stop-color="#FA73E9"></stop><stop offset="38.02%" stop-color="#B062FF"></stop><stop offset="97.92%" stop-color="#322109"></stop></linearGradient><linearGradient id="planet4" gradientTransform="rotate(90)"><stop offset="3.65%" stop-color="#5BD1D8"></stop><stop offset="28.65%" stop-color="#FC8BB7"></stop><stop offset="97.92%" stop-color="#352309"></stop></linearGradient><linearGradient id="planet5" gradientTransform="rotate(90)"><stop offset="29.69%" stop-color="#FF9559"></stop><stop offset="75.52%" stop-color="#341A07"></stop></linearGradient><linearGradient id="planet6" gradientTransform="rotate(90)"><stop offset="0%" stop-color="#89F1F1"></stop><stop offset="58.85%" stop-color="#342208"></stop></linearGradient><linearGradient id="planet7" gradientTransform="rotate(90)"><stop offset="35.42%" stop-color="#F189B4"></stop><stop offset="80.21%" stop-color="#619BF2"></stop></linearGradient><linearGradient id="planet8" gradientTransform="rotate(90)"><stop offset="29.69%" stop-color="#5CECE3"></stop><stop offset="75.52%" stop-color="#8B199D"></stop></linearGradient><linearGradient id="planet9" gradientTransform="rotate(90)"><stop offset="3.65%" stop-color="#EB9090"></stop><stop offset="38.02%" stop-color="#F3A87E"></stop><stop offset="97.92%" stop-color="#2B1B05"></stop></linearGradient><linearGradient id="planet10" gradientTransform="rotate(90)"><stop offset="3.65%" stop-color="#5BD8D1"></stop><stop offset="53.65%" stop-color="#FC8B8B"></stop><stop offset="97.92%" stop-color="#432209"></stop></linearGradient></defs><svg x="0" y="0"><path d="M0 270.666V436c45.656 0 82.666-37.01 82.666-82.666S45.656 270.666 0 270.666z" fill="url('#planet1')"></path><path d="M1898 428c-141.753 0-256.666 114.913-256.666 256.666S1756.247 941.334 1898 941.334c7.413 0 14.747-.331 22-.947v-511.44a259.903 259.903 0 00-22-.947z" fill="url('#planet2')"></path><path d="M0 1389.926v384.148c94.198-13.286 166.666-94.21 166.666-192.074 0-97.864-72.468-178.788-166.666-192.074z" fill="url('#planet3')"></path><path d="M1920 1889.92c-67.321 11.131-118.666 69.604-118.666 140.08 0 70.476 51.345 128.949 118.666 140.08z" fill="url('#planet4')"></path><path d="M0 2715.47v466.393c88.146-40.639 149.334-129.766 149.334-233.197 0-103.431-61.188-192.557-149.334-233.195z" fill="url('#planet5')"></path><path d="M1920 3058.684c-45.04.713-81.334 37.44-81.334 82.65 0 45.21 36.295 81.935 81.334 82.648z" fill="url('#planet6')"></path><path d="M0 3927.39v307.887c51.958-31.57 86.666-88.703 86.666-153.943 0-65.24-34.708-122.374-86.666-153.943z" fill="url('#planet7')"></path><path d="M1920 3493.478c-109.708 46.507-186.666 155.194-186.666 281.856s76.958 235.349 186.666 281.856z" fill="url('#planet8')"></path><path d="M0 4761.342v387.984c106.836-.36 193.334-87.071 193.334-193.992 0-106.92-86.498-193.632-193.334-193.992z" fill="url('#planet9')"></path><path d="M1920 5271.73c-53.753 20.228-92 72.111-92 132.936s38.247 112.708 92 132.936z" fill="url('#planet10')"></path></svg><svg x="0" y="5600"><path d="M0 270.666V436c45.656 0 82.666-37.01 82.666-82.666S45.656 270.666 0 270.666z" fill="url('#planet1')"></path><path d="M1898 428c-141.753 0-256.666 114.913-256.666 256.666S1756.247 941.334 1898 941.334c7.413 0 14.747-.331 22-.947v-511.44a259.903 259.903 0 00-22-.947z" fill="url('#planet2')"></path><path d="M0 1389.926v384.148c94.198-13.286 166.666-94.21 166.666-192.074 0-97.864-72.468-178.788-166.666-192.074z" fill="url('#planet3')"></path><path d="M1920 1889.92c-67.321 11.131-118.666 69.604-118.666 140.08 0 70.476 51.345 128.949 118.666 140.08z" fill="url('#planet4')"></path><path d="M0 2715.47v466.393c88.146-40.639 149.334-129.766 149.334-233.197 0-103.431-61.188-192.557-149.334-233.195z" fill="url('#planet5')"></path><path d="M1920 3058.684c-45.04.713-81.334 37.44-81.334 82.65 0 45.21 36.295 81.935 81.334 82.648z" fill="url('#planet6')"></path><path d="M0 3927.39v307.887c51.958-31.57 86.666-88.703 86.666-153.943 0-65.24-34.708-122.374-86.666-153.943z" fill="url('#planet7')"></path><path d="M1920 3493.478c-109.708 46.507-186.666 155.194-186.666 281.856s76.958 235.349 186.666 281.856z" fill="url('#planet8')"></path><path d="M0 4761.342v387.984c106.836-.36 193.334-87.071 193.334-193.992 0-106.92-86.498-193.632-193.334-193.992z" fill="url('#planet9')"></path><path d="M1920 5271.73c-53.753 20.228-92 72.111-92 132.936s38.247 112.708 92 132.936z" fill="url('#planet10')"></path></svg><svg x="0" y="11200"><path d="M0 270.666V436c45.656 0 82.666-37.01 82.666-82.666S45.656 270.666 0 270.666z" fill="url('#planet1')"></path><path d="M1898 428c-141.753 0-256.666 114.913-256.666 256.666S1756.247 941.334 1898 941.334c7.413 0 14.747-.331 22-.947v-511.44a259.903 259.903 0 00-22-.947z" fill="url('#planet2')"></path><path d="M0 1389.926v384.148c94.198-13.286 166.666-94.21 166.666-192.074 0-97.864-72.468-178.788-166.666-192.074z" fill="url('#planet3')"></path><path d="M1920 1889.92c-67.321 11.131-118.666 69.604-118.666 140.08 0 70.476 51.345 128.949 118.666 140.08z" fill="url('#planet4')"></path><path d="M0 2715.47v466.393c88.146-40.639 149.334-129.766 149.334-233.197 0-103.431-61.188-192.557-149.334-233.195z" fill="url('#planet5')"></path><path d="M1920 3058.684c-45.04.713-81.334 37.44-81.334 82.65 0 45.21 36.295 81.935 81.334 82.648z" fill="url('#planet6')"></path><path d="M0 3927.39v307.887c51.958-31.57 86.666-88.703 86.666-153.943 0-65.24-34.708-122.374-86.666-153.943z" fill="url('#planet7')"></path><path d="M1920 3493.478c-109.708 46.507-186.666 155.194-186.666 281.856s76.958 235.349 186.666 281.856z" fill="url('#planet8')"></path><path d="M0 4761.342v387.984c106.836-.36 193.334-87.071 193.334-193.992 0-106.92-86.498-193.632-193.334-193.992z" fill="url('#planet9')"></path><path d="M1920 5271.73c-53.753 20.228-92 72.111-92 132.936s38.247 112.708 92 132.936z" fill="url('#planet10')"></path></svg></svg>
